<svg width="34" height="34" viewBox="0 0 34 34" fill="none" xmlns="http://www.w3.org/2000/svg">
<g clip-path="url(#clip0_359_286)">
<path d="M18.8332 0C19.333 0 19.7801 0.3111 19.9484 0.7769L21.1486 4.1038C21.5782 4.21033 21.9488 4.31913 22.2604 4.4302C22.6004 4.55147 23.0424 4.73847 23.5864 4.9912L26.3812 3.5122C26.6092 3.39079 26.8705 3.34685 27.1257 3.38703C27.3808 3.4272 27.616 3.54931 27.7956 3.7349L30.2538 6.2764C30.5802 6.6147 30.672 7.1094 30.4884 7.5412L29.1777 10.6131C29.3942 11.012 29.5687 11.3543 29.7013 11.6399C29.8441 11.9493 30.0209 12.38 30.2317 12.9319L33.2866 14.2409C33.7456 14.4364 34.0295 14.8954 33.9989 15.3867L33.7745 18.9142C33.7592 19.1434 33.6769 19.363 33.5379 19.5458C33.3989 19.7287 33.2092 19.8667 32.9925 19.9427L30.0991 20.9712C30.0164 21.3701 29.9291 21.7135 29.8373 22.0014C29.6888 22.4476 29.5197 22.8866 29.3307 23.3172L30.7842 26.5302C30.8876 26.7558 30.9157 27.0087 30.8643 27.2515C30.8128 27.4942 30.6846 27.714 30.4986 27.8783L27.7344 30.3467C27.5527 30.5092 27.3255 30.612 27.0835 30.6412C26.8415 30.6704 26.5963 30.6246 26.3812 30.5099L23.532 29.0003C23.0867 29.2372 22.6268 29.4456 22.155 29.6242L20.9106 30.09L19.8056 33.15C19.7229 33.3736 19.575 33.5672 19.381 33.7057C19.187 33.8442 18.9559 33.9213 18.7176 33.9269L15.4876 34C15.2429 34.0057 15.0024 33.9358 14.7989 33.7998C14.5954 33.6638 14.4387 33.4683 14.3503 33.2401L13.0481 29.7942C12.6039 29.642 12.164 29.4776 11.7289 29.3012C11.3731 29.1472 11.0227 28.9811 10.6783 28.8031L7.44832 30.1835C7.23558 30.2747 7.00084 30.3019 6.77287 30.2618C6.5449 30.2216 6.33359 30.1158 6.16482 29.9574L3.77462 27.7151C3.59601 27.5493 3.47435 27.3313 3.42702 27.0923C3.3797 26.8532 3.40914 26.6053 3.51112 26.384L4.90002 23.358C4.71596 22.9993 4.54472 22.6341 4.38662 22.2632C4.20247 21.809 4.03239 21.3492 3.87662 20.8845L0.833625 19.958C0.586276 19.8832 0.370535 19.7289 0.219907 19.5189C0.0692795 19.309 -0.00780521 19.0552 0.000624697 18.7969L0.119625 15.5312C0.128465 15.3182 0.195176 15.1117 0.312588 14.9338C0.430001 14.7558 0.593676 14.6133 0.786025 14.5214L3.97862 12.988C4.12596 12.4463 4.25629 12.0224 4.36962 11.7164C4.53002 11.3054 4.70812 10.9016 4.90342 10.506L3.51962 7.582C3.41381 7.36012 3.38149 7.11028 3.42734 6.86877C3.4732 6.62726 3.59485 6.40666 3.77462 6.239L6.16142 3.9848C6.32852 3.82662 6.53788 3.72027 6.76417 3.67864C6.99046 3.637 7.22397 3.66186 7.43642 3.7502L10.663 5.083C11.0189 4.84613 11.343 4.6512 11.6354 4.4982C11.9834 4.3146 12.4503 4.11853 13.0362 3.91L14.1582 0.7803C14.242 0.551806 14.3938 0.354497 14.5933 0.214973C14.7927 0.0754486 15.0301 0.000419236 15.2734 0L18.8332 0ZM17.0414 11.9323C14.2075 11.9323 11.9108 14.2018 11.9108 17.0034C11.9108 19.805 14.2075 22.0762 17.0414 22.0762C19.8753 22.0762 22.1703 19.805 22.1703 17.0034C22.1703 14.2018 19.8753 11.9323 17.0414 11.9323Z" fill="#FF1A1A"/>
</g>
<defs>
<clipPath id="clip0_359_286">
<rect width="34" height="34" fill="white"/>
</clipPath>
</defs>
</svg>
