<svg width="44" height="44" viewBox="0 0 44 44" fill="none" xmlns="http://www.w3.org/2000/svg">
<path d="M33.0003 23.8298H23.8337V32.9964C23.8337 33.4826 23.6405 33.949 23.2967 34.2928C22.9529 34.6366 22.4866 34.8298 22.0003 34.8298C21.5141 34.8298 21.0478 34.6366 20.704 34.2928C20.3601 33.949 20.167 33.4826 20.167 32.9964V23.8298H11.0003C10.5141 23.8298 10.0478 23.6366 9.70396 23.2928C9.36015 22.949 9.16699 22.4826 9.16699 21.9964C9.16699 21.5102 9.36015 21.0439 9.70396 20.7001C10.0478 20.3562 10.5141 20.1631 11.0003 20.1631H20.167V10.9964C20.167 10.5102 20.3601 10.0439 20.704 9.70006C21.0478 9.35624 21.5141 9.16309 22.0003 9.16309C22.4866 9.16309 22.9529 9.35624 23.2967 9.70006C23.6405 10.0439 23.8337 10.5102 23.8337 10.9964V20.1631H33.0003C33.4866 20.1631 33.9529 20.3562 34.2967 20.7001C34.6405 21.0439 34.8337 21.5102 34.8337 21.9964C34.8337 22.4826 34.6405 22.949 34.2967 23.2928C33.9529 23.6366 33.4866 23.8298 33.0003 23.8298Z" fill="#F8F8F8"/>
</svg>
