<svg width="50" height="50" viewBox="0 0 50 50" fill="none" xmlns="http://www.w3.org/2000/svg">
<path d="M20.8333 43.7503H29.1667C29.1667 46.042 27.2917 47.917 25 47.917C22.7083 47.917 20.8333 46.042 20.8333 43.7503ZM43.75 39.5837V41.667H6.25V39.5837L10.4167 35.417V22.917C10.4167 16.4587 14.5833 10.8337 20.8333 8.95866V8.33366C20.8333 6.04199 22.7083 4.16699 25 4.16699C27.2917 4.16699 29.1667 6.04199 29.1667 8.33366V8.95866C35.4167 10.8337 39.5833 16.4587 39.5833 22.917V35.417L43.75 39.5837ZM35.4167 22.917C35.4167 17.0837 30.8333 12.5003 25 12.5003C19.1667 12.5003 14.5833 17.0837 14.5833 22.917V37.5003H35.4167V22.917Z" fill="#777777"/>
</svg>
