<svg width="256" height="256" viewBox="0 0 256 256" fill="none" xmlns="http://www.w3.org/2000/svg">
<path d="M128 24C107.431 24 87.3235 30.0995 70.2207 41.5272C53.118 52.9548 39.7881 69.1974 31.9166 88.2009C24.0451 107.204 21.9855 128.115 25.9984 148.289C30.0112 168.463 39.9163 186.994 54.4609 201.539C69.0056 216.084 87.5366 225.989 107.711 230.002C127.885 234.015 148.796 231.955 167.799 224.083C186.803 216.212 203.045 202.882 214.473 185.779C225.901 168.677 232 148.569 232 128C231.971 100.426 221.004 73.9905 201.507 54.4931C182.01 34.9956 155.574 24.0291 128 24ZM165.66 154.34C166.403 155.083 166.993 155.966 167.395 156.937C167.797 157.908 168.005 158.949 168.005 160C168.005 161.051 167.797 162.092 167.395 163.063C166.993 164.034 166.403 164.917 165.66 165.66C164.917 166.403 164.034 166.993 163.063 167.395C162.092 167.797 161.051 168.004 160 168.004C158.949 168.004 157.908 167.797 156.937 167.395C155.966 166.993 155.083 166.403 154.34 165.66L128 139.31L101.66 165.66C100.917 166.403 100.034 166.993 99.0632 167.395C98.0921 167.797 97.0512 168.004 96 168.004C94.9489 168.004 93.908 167.797 92.9369 167.395C91.9657 166.993 91.0833 166.403 90.34 165.66C89.5968 164.917 89.0072 164.034 88.6049 163.063C88.2026 162.092 87.9956 161.051 87.9956 160C87.9956 158.949 88.2026 157.908 88.6049 156.937C89.0072 155.966 89.5968 155.083 90.34 154.34L116.69 128L90.34 101.66C88.8389 100.159 87.9956 98.1229 87.9956 96C87.9956 93.8771 88.8389 91.8411 90.34 90.34C91.8412 88.8389 93.8771 87.9956 96 87.9956C98.123 87.9956 100.159 88.8389 101.66 90.34L128 116.69L154.34 90.34C155.083 89.5967 155.966 89.0071 156.937 88.6049C157.908 88.2026 158.949 87.9956 160 87.9956C161.051 87.9956 162.092 88.2026 163.063 88.6049C164.034 89.0071 164.917 89.5967 165.66 90.34C166.403 91.0833 166.993 91.9657 167.395 92.9368C167.797 93.908 168.005 94.9488 168.005 96C168.005 97.0512 167.797 98.092 167.395 99.0632C166.993 100.034 166.403 100.917 165.66 101.66L139.31 128L165.66 154.34Z" fill="#252424"/>
</svg>
