<svg width="24" height="24" viewBox="0 0 24 24" fill="none" xmlns="http://www.w3.org/2000/svg">
<path fill-rule="evenodd" clip-rule="evenodd" d="M20.5302 4.53009C20.6626 4.38792 20.7348 4.19987 20.7313 4.00557C20.7279 3.81127 20.6492 3.62588 20.5118 3.48847C20.3744 3.35106 20.189 3.27234 19.9947 3.26892C19.8004 3.26549 19.6123 3.33761 19.4702 3.47009L3.47015 19.4701C3.39647 19.5388 3.33736 19.6216 3.29637 19.7136C3.25538 19.8056 3.23334 19.9049 3.23156 20.0056C3.22979 20.1063 3.24831 20.2063 3.28603 20.2997C3.32375 20.3931 3.3799 20.4779 3.45112 20.5491C3.52233 20.6203 3.60717 20.6765 3.70056 20.7142C3.79394 20.7519 3.89397 20.7705 3.99468 20.7687C4.09538 20.7669 4.19469 20.7449 4.28669 20.7039C4.37869 20.6629 4.46149 20.6038 4.53015 20.5301L7.37715 17.6831C8.74415 18.3271 10.3172 18.7501 12.0002 18.7501C14.6842 18.7501 17.0902 17.6731 18.8202 16.3451C19.6872 15.6801 20.4032 14.9381 20.9092 14.2091C21.4012 13.5001 21.7502 12.7231 21.7502 12.0001C21.7502 11.2771 21.4002 10.5001 20.9092 9.79109C20.4032 9.06209 19.6872 8.32109 18.8212 7.65509C18.5585 7.45309 18.2812 7.25876 17.9892 7.07209L20.5302 4.53009ZM16.9002 8.16109L15.1292 9.93209C15.6066 10.6532 15.8201 11.5172 15.7336 12.3778C15.647 13.2383 15.2656 14.0424 14.6541 14.654C14.0425 15.2655 13.2383 15.6469 12.3778 15.7335C11.5173 15.8201 10.6533 15.6066 9.93215 15.1291L8.51515 16.5451C9.62067 17.002 10.804 17.2414 12.0002 17.2501C14.2872 17.2501 16.3802 16.3271 17.9072 15.1551C18.6692 14.5701 19.2712 13.9371 19.6772 13.3541C20.0962 12.7501 20.2502 12.2771 20.2502 12.0001C20.2502 11.7231 20.0962 11.2501 19.6772 10.6461C19.2712 10.0631 18.6692 9.43009 17.9072 8.84509C17.5938 8.60442 17.2588 8.37642 16.9002 8.16109ZM11.0292 14.0311C11.449 14.2316 11.9207 14.297 12.3793 14.2184C12.8379 14.1397 13.2608 13.9208 13.5898 13.5918C13.9188 13.2627 14.1377 12.8398 14.2164 12.3812C14.2951 11.9227 14.2297 11.451 14.0292 11.0311L11.0292 14.0311Z" fill="#979696"/>
<path d="M12 5.25C13.032 5.25 14.024 5.41 14.951 5.681C14.9916 5.69311 15.0283 5.71562 15.0575 5.74629C15.0867 5.77697 15.1074 5.81474 15.1175 5.85588C15.1276 5.89701 15.1268 5.94007 15.1151 5.98078C15.1035 6.0215 15.0814 6.05846 15.051 6.088L14.227 6.913C14.1966 6.94368 14.1589 6.96597 14.1173 6.97771C14.0758 6.98945 14.0319 6.99024 13.99 6.98C13.3373 6.82952 12.6698 6.75237 12 6.75C9.713 6.75 7.62 7.673 6.093 8.845C5.331 9.43 4.729 10.063 4.323 10.646C3.904 11.25 3.75 11.723 3.75 12C3.75 12.277 3.904 12.75 4.323 13.354C4.677 13.864 5.181 14.411 5.811 14.931C5.927 15.026 5.938 15.201 5.831 15.308L5.123 16.017C5.07964 16.061 5.02132 16.087 4.95962 16.09C4.89793 16.093 4.83738 16.0726 4.79 16.033C4.14601 15.5023 3.57476 14.889 3.091 14.209C2.6 13.5 2.25 12.723 2.25 12C2.25 11.277 2.6 10.5 3.091 9.791C3.597 9.062 4.313 8.321 5.179 7.655C6.91 6.327 9.316 5.25 12 5.25Z" fill="#979696"/>
<path d="M12.0005 8.25C12.1191 8.25 12.2361 8.25533 12.3515 8.266C12.5485 8.285 12.6195 8.52 12.4805 8.66L11.2675 9.872C10.9446 9.98393 10.6513 10.1676 10.4097 10.4092C10.1681 10.6509 9.9844 10.9441 9.87246 11.267L8.66046 12.48C8.52046 12.62 8.28546 12.548 8.26646 12.351C8.2176 11.8312 8.27781 11.3069 8.44324 10.8117C8.60868 10.3166 8.87569 9.86137 9.22718 9.47532C9.57868 9.08928 10.0069 8.78089 10.4845 8.56989C10.962 8.35889 11.4784 8.24994 12.0005 8.25Z" fill="#979696"/>
</svg>
