<svg width="95" height="50" viewBox="0 0 95 50" fill="none" xmlns="http://www.w3.org/2000/svg">
<rect width="95" height="50" rx="5" fill="#FF4646"/>
<path d="M47.5 28.875C49.9162 28.875 51.875 26.9162 51.875 24.5C51.875 22.0838 49.9162 20.125 47.5 20.125C45.0838 20.125 43.125 22.0838 43.125 24.5C43.125 26.9162 45.0838 28.875 47.5 28.875Z" fill="white"/>
<path d="M63.8406 24.1281C62.5542 20.8006 60.3209 17.9229 57.4168 15.8507C54.5127 13.7786 51.0651 12.6028 47.5 12.4688C43.935 12.6028 40.4873 13.7786 37.5832 15.8507C34.6791 17.9229 32.4458 20.8006 31.1594 24.1281C31.0725 24.3684 31.0725 24.6316 31.1594 24.8719C32.4458 28.1994 34.6791 31.0771 37.5832 33.1493C40.4873 35.2214 43.935 36.3972 47.5 36.5312C51.0651 36.3972 54.5127 35.2214 57.4168 33.1493C60.3209 31.0771 62.5542 28.1994 63.8406 24.8719C63.9275 24.6316 63.9275 24.3684 63.8406 24.1281ZM47.5 31.6094C46.0939 31.6094 44.7194 31.1924 43.5503 30.4112C42.3811 29.63 41.4699 28.5197 40.9318 27.2206C40.3937 25.9216 40.2529 24.4921 40.5273 23.113C40.8016 21.7339 41.4787 20.4672 42.4729 19.4729C43.4672 18.4786 44.734 17.8015 46.1131 17.5272C47.4921 17.2529 48.9216 17.3937 50.2207 17.9318C51.5197 18.4699 52.6301 19.3811 53.4113 20.5502C54.1924 21.7194 54.6094 23.0939 54.6094 24.5C54.6065 26.3846 53.8566 28.1913 52.5239 29.5239C51.1913 30.8565 49.3847 31.6065 47.5 31.6094Z" fill="white"/>
</svg>
