<svg width="40" height="40" viewBox="0 0 40 40" fill="none" xmlns="http://www.w3.org/2000/svg">
<path d="M3.33301 31.6663C3.33301 34.4997 5.49967 36.6663 8.33301 36.6663H31.6663C34.4997 36.6663 36.6663 34.4997 36.6663 31.6663V18.333H3.33301V31.6663ZM31.6663 6.66634H28.333V4.99967C28.333 3.99967 27.6663 3.33301 26.6663 3.33301C25.6663 3.33301 24.9997 3.99967 24.9997 4.99967V6.66634H14.9997V4.99967C14.9997 3.99967 14.333 3.33301 13.333 3.33301C12.333 3.33301 11.6663 3.99967 11.6663 4.99967V6.66634H8.33301C5.49967 6.66634 3.33301 8.83301 3.33301 11.6663V14.9997H36.6663V11.6663C36.6663 8.83301 34.4997 6.66634 31.6663 6.66634Z" fill="black"/>
</svg>
