<svg width="20" height="20" viewBox="0 0 20 20" fill="none" xmlns="http://www.w3.org/2000/svg">
<g clip-path="url(#clip0_755_666)">
<path d="M8.53583 13.595L5 10.0583L6.17833 8.87996L8.53583 11.2366L13.2492 6.52246L14.4283 7.70163L8.53583 13.595Z" fill="#FF0000"/>
<path fill-rule="evenodd" clip-rule="evenodd" d="M0.833008 9.99967C0.833008 4.93717 4.93717 0.833008 9.99967 0.833008C15.0622 0.833008 19.1663 4.93717 19.1663 9.99967C19.1663 15.0622 15.0622 19.1663 9.99967 19.1663C4.93717 19.1663 0.833008 15.0622 0.833008 9.99967ZM9.99967 17.4997C9.01476 17.4997 8.03949 17.3057 7.12955 16.9288C6.21961 16.5519 5.39281 15.9994 4.69637 15.303C3.99993 14.6065 3.44749 13.7797 3.07058 12.8698C2.69367 11.9599 2.49967 10.9846 2.49967 9.99967C2.49967 9.01476 2.69367 8.03949 3.07058 7.12955C3.44749 6.21961 3.99993 5.39281 4.69637 4.69637C5.39281 3.99993 6.21961 3.44749 7.12955 3.07058C8.03949 2.69367 9.01476 2.49967 9.99967 2.49967C11.9888 2.49967 13.8965 3.28985 15.303 4.69637C16.7095 6.1029 17.4997 8.01055 17.4997 9.99967C17.4997 11.9888 16.7095 13.8965 15.303 15.303C13.8965 16.7095 11.9888 17.4997 9.99967 17.4997Z" fill="#FF0000"/>
</g>
<defs>
<clipPath id="clip0_755_666">
<rect width="20" height="20" fill="white"/>
</clipPath>
</defs>
</svg>
