<svg width="39" height="40" viewBox="0 0 39 40" fill="none" xmlns="http://www.w3.org/2000/svg">
<path d="M6.5 30.0004V11.8337L3.98125 6.25037C3.79167 5.83371 3.77812 5.40982 3.94062 4.97871C4.10312 4.54759 4.3875 4.23537 4.79375 4.04204C5.2 3.84871 5.61329 3.82815 6.03363 3.98037C6.45396 4.13259 6.75838 4.41704 6.94688 4.83371L10.075 11.7504H28.925L32.0531 4.83371C32.2427 4.41704 32.5477 4.12537 32.968 3.95871C33.3883 3.79204 33.8011 3.81982 34.2062 4.04204C34.6125 4.23648 34.8969 4.54926 35.0594 4.98037C35.2219 5.41148 35.2083 5.83482 35.0187 6.25037L32.5 11.8337V30.0004C32.5 30.917 32.182 31.702 31.5461 32.3554C30.9102 33.0087 30.1448 33.3348 29.25 33.3337H9.75C8.85625 33.3337 8.09142 33.0076 7.4555 32.3554C6.81958 31.7031 6.50108 30.9181 6.5 30.0004ZM16.25 21.667H22.75C23.2104 21.667 23.5966 21.507 23.9086 21.187C24.2206 20.867 24.3761 20.4715 24.375 20.0004C24.3739 19.5293 24.2179 19.1337 23.907 18.8137C23.5961 18.4937 23.2104 18.3337 22.75 18.3337H16.25C15.7896 18.3337 15.4039 18.4937 15.093 18.8137C14.7821 19.1337 14.6261 19.5293 14.625 20.0004C14.6239 20.4715 14.7799 20.8676 15.093 21.1887C15.4061 21.5098 15.7917 21.6693 16.25 21.667Z" fill="white"/>
</svg>
