<svg width="58" height="58" viewBox="0 0 58 58" fill="none" xmlns="http://www.w3.org/2000/svg">
<path d="M9.66667 31.4167H24.1667C25.4958 31.4167 26.5833 30.3292 26.5833 29V9.66667C26.5833 8.3375 25.4958 7.25 24.1667 7.25H9.66667C8.3375 7.25 7.25 8.3375 7.25 9.66667V29C7.25 30.3292 8.3375 31.4167 9.66667 31.4167ZM9.66667 50.75H24.1667C25.4958 50.75 26.5833 49.6625 26.5833 48.3333V38.6667C26.5833 37.3375 25.4958 36.25 24.1667 36.25H9.66667C8.3375 36.25 7.25 37.3375 7.25 38.6667V48.3333C7.25 49.6625 8.3375 50.75 9.66667 50.75ZM33.8333 50.75H48.3333C49.6625 50.75 50.75 49.6625 50.75 48.3333V29C50.75 27.6708 49.6625 26.5833 48.3333 26.5833H33.8333C32.5042 26.5833 31.4167 27.6708 31.4167 29V48.3333C31.4167 49.6625 32.5042 50.75 33.8333 50.75ZM31.4167 9.66667V19.3333C31.4167 20.6625 32.5042 21.75 33.8333 21.75H48.3333C49.6625 21.75 50.75 20.6625 50.75 19.3333V9.66667C50.75 8.3375 49.6625 7.25 48.3333 7.25H33.8333C32.5042 7.25 31.4167 8.3375 31.4167 9.66667Z" fill="#FF1A1A"/>
</svg>
