<svg width="50" height="50" viewBox="0 0 50 50" fill="none" xmlns="http://www.w3.org/2000/svg">
<path d="M6.25 35.9377V43.7502H14.0625L37.1042 20.7085L29.2917 12.896L6.25 35.9377ZM43.1458 14.6669C43.339 14.4741 43.4922 14.2452 43.5967 13.9932C43.7013 13.7411 43.7551 13.471 43.7551 13.1981C43.7551 12.9253 43.7013 12.6551 43.5967 12.4031C43.4922 12.151 43.339 11.9221 43.1458 11.7294L38.2708 6.85438C38.0781 6.66124 37.8492 6.50802 37.5971 6.40347C37.3451 6.29893 37.0749 6.24512 36.8021 6.24512C36.5292 6.24512 36.2591 6.29893 36.007 6.40347C35.755 6.50802 35.5261 6.66124 35.3333 6.85438L31.5208 10.6669L39.3333 18.4794L43.1458 14.6669Z" fill="#FF0000"/>
</svg>
