<svg width="58" height="59" viewBox="0 0 58 59" fill="none" xmlns="http://www.w3.org/2000/svg">
<path d="M27.1636 26.4835C32.9117 26.4835 37.5714 21.8238 37.5714 16.0757C37.5714 10.3277 32.9117 5.66797 27.1636 5.66797C21.4156 5.66797 16.7559 10.3277 16.7559 16.0757C16.7559 21.8238 21.4156 26.4835 27.1636 26.4835Z" fill="#FF0000"/>
<path d="M33.833 45.5107H45.1108V47.7663H33.833V45.5107Z" fill="#FF0000"/>
<path d="M24.1668 48.7331V53.5665C24.1668 53.9938 24.3366 54.4035 24.6387 54.7057C24.9409 55.0078 25.3507 55.1776 25.7779 55.1776H53.1668C53.5941 55.1776 54.0039 55.0078 54.3061 54.7057C54.6082 54.4035 54.7779 53.9938 54.7779 53.5665V37.4553C54.7779 37.0281 54.6082 36.6183 54.3061 36.3161C54.0039 36.014 53.5941 35.8442 53.1668 35.8442H41.8891V33.4759C41.8891 33.0486 41.7193 32.6388 41.4172 32.3367C41.115 32.0345 40.7052 31.8648 40.2779 31.8648C39.8507 31.8648 39.4409 32.0345 39.1387 32.3367C38.8366 32.6388 38.6668 33.0486 38.6668 33.4759V35.8442H35.4446V30.0765C32.7069 29.6285 29.9376 29.4022 27.1635 29.3998C21.0458 29.3738 14.9966 30.6881 9.44128 33.2503C8.52695 33.6818 7.75558 34.3666 7.21871 35.2233C6.68184 36.08 6.402 37.0727 6.41239 38.0837V48.7331H24.1668ZM51.5557 51.9553H27.3891V39.0665H38.6668V39.7431C38.6668 40.1704 38.8366 40.5802 39.1387 40.8824C39.4409 41.1845 39.8507 41.3542 40.2779 41.3542C40.7052 41.3542 41.115 41.1845 41.4172 40.8824C41.7193 40.5802 41.8891 40.1704 41.8891 39.7431V39.0665H51.5557V51.9553Z" fill="#FF0000"/>
</svg>
