<svg width="35" height="35" viewBox="0 0 35 35" fill="none" xmlns="http://www.w3.org/2000/svg">
<g clip-path="url(#clip0_755_1161)">
<path d="M3.75 21.25V32.5C3.75 32.8315 3.8817 33.1495 4.11612 33.3839C4.35054 33.6183 4.66848 33.75 5 33.75H30C30.3315 33.75 30.6495 33.6183 30.8839 33.3839C31.1183 33.1495 31.25 32.8315 31.25 32.5V21.25M20 21.25V33.75M3.75 25H20M1.25 10L5 1.25H30L33.75 10H1.25ZM1.25 10V12.5C1.25 13.8261 1.77678 15.0979 2.71447 16.0355C3.65215 16.9732 4.92392 17.5 6.25 17.5H6.95C8.27608 17.5 9.54785 16.9732 10.4855 16.0355C11.4232 15.0979 11.95 13.8261 11.95 12.5V10" stroke="white" stroke-width="2.5" stroke-linecap="round" stroke-linejoin="round"/>
<path d="M23.125 10V12.5M23.125 12.5C23.125 13.8261 22.5982 15.0979 21.6605 16.0355C20.7229 16.9732 19.4511 17.5 18.125 17.5H16.875C15.5489 17.5 14.2771 16.9732 13.3395 16.0355C12.4018 15.0979 11.875 13.8261 11.875 12.5V10M23.125 12.5C23.125 13.8261 23.6518 15.0979 24.5895 16.0355C25.5271 16.9732 26.7989 17.5 28.125 17.5H28.75C30.0761 17.5 31.3479 16.9732 32.2855 16.0355C33.2232 15.0979 33.75 13.8261 33.75 12.5V10" stroke="white" stroke-width="2.5" stroke-linecap="round" stroke-linejoin="round"/>
</g>
<defs>
<clipPath id="clip0_755_1161">
<rect width="35" height="35" fill="white"/>
</clipPath>
</defs>
</svg>
