<svg width="180" height="79" viewBox="0 0 180 79" fill="none" xmlns="http://www.w3.org/2000/svg">
<path d="M26.2597 6.57324C27.1302 6.57324 27.9651 6.91951 28.5807 7.53583C29.1963 8.15214 29.5421 8.98802 29.5421 9.85967V16.4325C32.1538 16.4325 34.6585 17.4712 36.5052 19.3202C38.352 21.1691 39.3895 23.6769 39.3895 26.2917V46.01C39.3895 48.6252 38.352 51.1326 36.5052 52.9816C34.6585 54.8306 32.1538 55.8697 29.5421 55.8697V69.015C29.5421 69.8868 29.1963 70.7227 28.5807 71.339C27.9651 71.9554 27.1302 72.3016 26.2597 72.3016C25.3891 72.3016 24.5542 71.9554 23.9386 71.339C23.3231 70.7227 22.9772 69.8868 22.9772 69.015V55.8697C20.3656 55.8697 17.8609 54.8306 16.0141 52.9816C14.1674 51.1326 13.1299 48.6252 13.1299 46.01V26.2917C13.1299 23.6769 14.1674 21.1691 16.0141 19.3202C17.8609 17.4712 20.3656 16.4325 22.9772 16.4325V9.85967C22.9772 8.98802 23.3231 8.15214 23.9386 7.53583C24.5542 6.91951 25.3891 6.57324 26.2597 6.57324ZM55.8015 6.57324C56.6058 6.57333 57.3817 6.86888 57.9826 7.40376C58.583 7.93868 58.9669 8.67574 59.0612 9.47516L59.0841 9.85967V23.0053C61.5959 23.0052 64.0128 23.966 65.8403 25.6912C67.6678 27.4165 68.7675 29.7757 68.915 32.2861L68.9314 32.8645V52.5831C68.9314 55.0979 67.9719 57.5178 66.2488 59.3475C64.5258 61.1772 62.1693 62.2782 59.6617 62.4258L59.0841 62.4423V69.015C59.0832 69.8528 58.763 70.6585 58.1887 71.2675C57.6143 71.8765 56.8293 72.2433 55.9939 72.2924C55.1589 72.3415 54.3363 72.0691 53.6946 71.5316C53.0534 70.9942 52.6412 70.2316 52.5423 69.3998L52.5194 69.015V62.4423C50.0076 62.4423 47.5907 61.4816 45.7631 59.7565C43.9356 58.0309 42.8357 55.672 42.6883 53.1614L42.6719 52.5831V32.8645C42.6717 30.3497 43.6314 27.93 45.3546 26.1003C47.0777 24.2705 49.4342 23.1693 51.9414 23.0218L52.5194 23.0053V9.85967C52.5194 8.98802 52.8652 8.15214 53.4807 7.53583C54.0963 6.91951 54.9313 6.57324 55.8015 6.57324Z" fill="#FF1A1A"/>
<path d="M26.2597 6.57324C27.1302 6.57324 27.9651 6.91951 28.5807 7.53583C29.1963 8.15214 29.5421 8.98802 29.5421 9.85967V16.4325C32.1538 16.4325 34.6585 17.4712 36.5052 19.3202C38.352 21.1691 39.3895 23.6769 39.3895 26.2917V46.01C39.3895 48.6252 38.352 51.1326 36.5052 52.9816C34.6585 54.8306 32.1538 55.8697 29.5421 55.8697V69.015C29.5421 69.8868 29.1963 70.7227 28.5807 71.339C27.9651 71.9554 27.1302 72.3016 26.2597 72.3016C25.3891 72.3016 24.5542 71.9554 23.9386 71.339C23.3231 70.7227 22.9772 69.8868 22.9772 69.015V55.8697C20.3656 55.8697 17.8609 54.8306 16.0141 52.9816C14.1674 51.1326 13.1299 48.6252 13.1299 46.01V26.2917C13.1299 23.6769 14.1674 21.1691 16.0141 19.3202C17.8609 17.4712 20.3656 16.4325 22.9772 16.4325V9.85967C22.9772 8.98802 23.3231 8.15214 23.9386 7.53583C24.5542 6.91951 25.3891 6.57324 26.2597 6.57324ZM55.8015 6.57324C56.6058 6.57333 57.3817 6.86888 57.9826 7.40376C58.583 7.93868 58.9669 8.67574 59.0612 9.47516L59.0841 9.85967V23.0053C61.5959 23.0052 64.0128 23.966 65.8403 25.6912C67.6678 27.4165 68.7675 29.7757 68.915 32.2861L68.9314 32.8645V52.5831C68.9314 55.0979 67.9719 57.5178 66.2488 59.3475C64.5258 61.1772 62.1693 62.2782 59.6617 62.4258L59.0841 62.4423V69.015C59.0832 69.8528 58.763 70.6585 58.1887 71.2675C57.6143 71.8765 56.8293 72.2433 55.9939 72.2924C55.1589 72.3415 54.3363 72.0691 53.6946 71.5316C53.0534 70.9942 52.6412 70.2316 52.5423 69.3998L52.5194 69.015V62.4423C50.0076 62.4423 47.5907 61.4816 45.7631 59.7565C43.9356 58.0309 42.8357 55.672 42.6883 53.1614L42.6719 52.5831V32.8645C42.6717 30.3497 43.6314 27.93 45.3546 26.1003C47.0777 24.2705 49.4342 23.1693 51.9414 23.0218L52.5194 23.0053V9.85967C52.5194 8.98802 52.8652 8.15214 53.4807 7.53583C54.0963 6.91951 54.9313 6.57324 55.8015 6.57324Z" fill="#FF1A1A"/>
<path d="M88.42 47.9668C87.1526 47.9668 85.9847 47.7682 84.9161 47.3706C83.8627 46.9579 82.9389 46.3769 82.1452 45.6281C81.3665 44.8791 80.756 44.0001 80.3131 42.9913C79.8858 41.9824 79.6719 40.8742 79.6719 39.6667C79.6719 38.4591 79.8858 37.3509 80.3131 36.342C80.756 35.3332 81.3743 34.4542 82.1681 33.7053C82.9618 32.9563 83.8934 32.3831 84.962 31.9856C86.0305 31.5729 87.2062 31.3666 88.4887 31.3666C89.9085 31.3666 91.1832 31.6035 92.3131 32.0773C93.4581 32.5512 94.42 33.239 95.1986 34.1409L92.8169 36.342C92.2366 35.7306 91.6032 35.2797 90.9162 34.9893C90.2291 34.6835 89.4812 34.5307 88.6719 34.5307C87.8933 34.5307 87.1833 34.653 86.5421 34.8975C85.9009 35.1421 85.3435 35.4937 84.8704 35.9523C84.4123 36.4108 84.0537 36.9535 83.794 37.5802C83.5499 38.2069 83.4276 38.9024 83.4276 39.6667C83.4276 40.4157 83.5499 41.1035 83.794 41.7302C84.0537 42.357 84.4123 42.9072 84.8704 43.3811C85.3435 43.8396 85.8931 44.1912 86.5192 44.4358C87.1604 44.6803 87.8626 44.8026 88.6261 44.8026C89.3589 44.8026 90.0688 44.688 90.7558 44.4587C91.458 44.2142 92.1377 43.8091 92.794 43.2435L94.9009 45.9261C94.0307 46.5833 93.0152 47.0877 91.8551 47.4394C90.71 47.7911 89.565 47.9668 88.42 47.9668ZM91.5116 45.4446V39.4145H94.9009V45.9261L91.5116 45.4446ZM104.21 47.8751C102.805 47.8751 101.569 47.5999 100.5 47.0496C99.4462 46.4994 98.6296 45.7504 98.0493 44.8026C97.4694 43.8396 97.179 42.7467 97.179 41.5239C97.179 40.2857 97.4616 39.1928 98.0264 38.2451C98.6067 37.2821 99.3931 36.5331 100.385 35.9981C101.378 35.4478 102.5 35.1727 103.752 35.1727C104.958 35.1727 106.042 35.4326 107.003 35.9523C107.981 36.4567 108.752 37.1904 109.316 38.1534C109.882 39.1011 110.164 40.2399 110.164 41.5697C110.164 41.7073 110.156 41.8678 110.141 42.0512C110.126 42.2194 110.111 42.3799 110.095 42.5327H100.087V40.4462H108.217L106.843 41.0653C106.843 40.4233 106.714 39.8654 106.454 39.3915C106.195 38.9177 105.836 38.5508 105.378 38.291C104.92 38.0158 104.385 37.8782 103.774 37.8782C103.164 37.8782 102.622 38.0158 102.149 38.291C101.691 38.5508 101.332 38.9253 101.072 39.4145C100.813 39.8883 100.683 40.4539 100.683 41.1112V41.6614C100.683 42.334 100.828 42.9302 101.118 43.4499C101.423 43.9543 101.843 44.3441 102.378 44.6192C102.927 44.8791 103.568 45.009 104.301 45.009C104.958 45.009 105.53 44.9096 106.019 44.7109C106.523 44.5122 106.981 44.2142 107.393 43.8167L109.294 45.8803C108.729 46.5223 108.019 47.0189 107.164 47.3706C106.309 47.7068 105.324 47.8751 104.21 47.8751ZM116.687 47.8751C115.634 47.8751 114.619 47.7526 113.641 47.5082C112.68 47.2482 111.917 46.9272 111.351 46.5452L112.542 43.9772C113.107 44.3288 113.772 44.6192 114.535 44.8485C115.313 45.0625 116.077 45.1695 116.825 45.1695C117.649 45.1695 118.229 45.0701 118.565 44.8714C118.916 44.6727 119.092 44.3976 119.092 44.046C119.092 43.7556 118.954 43.5416 118.68 43.404C118.42 43.2512 118.069 43.1365 117.626 43.0601C117.184 42.9836 116.695 42.9072 116.161 42.8308C115.642 42.7544 115.115 42.655 114.58 42.5327C114.046 42.3952 113.558 42.1965 113.115 41.9366C112.672 41.6767 112.313 41.3252 112.038 40.8819C111.779 40.4386 111.649 39.8654 111.649 39.1622C111.649 38.3827 111.871 37.6948 112.313 37.0987C112.771 36.5025 113.428 36.0363 114.283 35.7C115.138 35.3485 116.161 35.1727 117.351 35.1727C118.191 35.1727 119.046 35.2644 119.916 35.4478C120.787 35.6313 121.512 35.8987 122.092 36.2503L120.901 38.7954C120.306 38.4438 119.703 38.2069 119.092 38.0846C118.496 37.947 117.917 37.8782 117.351 37.8782C116.558 37.8782 115.977 37.9852 115.611 38.1992C115.245 38.4133 115.061 38.6884 115.061 39.0247C115.061 39.3304 115.191 39.5597 115.451 39.7125C115.725 39.8654 116.085 39.9877 116.527 40.0794C116.97 40.1711 117.451 40.2551 117.97 40.3316C118.504 40.3927 119.039 40.4921 119.573 40.6297C120.107 40.7672 120.588 40.9659 121.016 41.2258C121.458 41.4704 121.817 41.8143 122.092 42.2576C122.367 42.6856 122.504 43.2512 122.504 43.9543C122.504 44.7186 122.275 45.3988 121.817 45.9949C121.359 46.5759 120.695 47.0345 119.825 47.3706C118.97 47.7068 117.924 47.8751 116.687 47.8751ZM128.281 47.6916V34.6683H123.151V31.6417H137.121V34.6683H131.991V47.6916H128.281ZM143.475 47.8751C142.162 47.8751 140.994 47.5999 139.971 47.0496C138.964 46.4994 138.162 45.7504 137.567 44.8026C136.987 43.8396 136.697 42.7467 136.697 41.5239C136.697 40.2857 136.987 39.1928 137.567 38.2451C138.162 37.2821 138.964 36.5331 139.971 35.9981C140.994 35.4478 142.162 35.1727 143.475 35.1727C144.773 35.1727 145.933 35.4478 146.956 35.9981C147.979 36.5331 148.78 37.2744 149.361 38.2222C149.941 39.1699 150.231 40.2705 150.231 41.5239C150.231 42.7467 149.941 43.8396 149.361 44.8026C148.78 45.7504 147.979 46.4994 146.956 47.0496C145.933 47.5999 144.773 47.8751 143.475 47.8751ZM143.475 44.9402C144.071 44.9402 144.605 44.8026 145.078 44.5275C145.551 44.2524 145.926 43.8626 146.2 43.3582C146.475 42.8385 146.613 42.227 146.613 41.5239C146.613 40.8054 146.475 40.194 146.2 39.6896C145.926 39.1852 145.551 38.7954 145.078 38.5202C144.605 38.2451 144.071 38.1075 143.475 38.1075C142.88 38.1075 142.345 38.2451 141.872 38.5202C141.399 38.7954 141.017 39.1852 140.727 39.6896C140.452 40.194 140.315 40.8054 140.315 41.5239C140.315 42.227 140.452 42.8385 140.727 43.3582C141.017 43.8626 141.399 44.2524 141.872 44.5275C142.345 44.8026 142.88 44.9402 143.475 44.9402ZM158.573 47.8751C157.245 47.8751 156.061 47.6077 155.023 47.0726C153.985 46.5223 153.168 45.7656 152.573 44.8026C151.993 43.8396 151.703 42.7467 151.703 41.5239C151.703 40.2857 151.993 39.1928 152.573 38.2451C153.168 37.2821 153.985 36.5331 155.023 35.9981C156.061 35.4478 157.245 35.1727 158.573 35.1727C159.871 35.1727 161 35.4478 161.962 35.9981C162.924 36.5331 163.634 37.305 164.092 38.3139L161.321 39.8042C161 39.2234 160.596 38.7954 160.107 38.5202C159.634 38.2451 159.115 38.1075 158.55 38.1075C157.939 38.1075 157.39 38.2451 156.901 38.5202C156.413 38.7954 156.023 39.1852 155.733 39.6896C155.458 40.194 155.321 40.8054 155.321 41.5239C155.321 42.2423 155.458 42.8537 155.733 43.3582C156.023 43.8626 156.413 44.2524 156.901 44.5275C157.39 44.8026 157.939 44.9402 158.55 44.9402C159.115 44.9402 159.634 44.8103 160.107 44.5504C160.596 44.2753 161 43.8397 161.321 43.2435L164.092 44.7568C163.634 45.7504 162.924 46.5223 161.962 47.0726C161 47.6077 159.871 47.8751 158.573 47.8751ZM169.036 45.1695L169.128 40.8131L174.876 35.3561H179.135L173.616 40.9736L171.761 42.4869L169.036 45.1695ZM166.082 47.6916V30.6787H169.654V47.6916H166.082ZM175.265 47.6916L171.097 42.5098L173.341 39.7355L179.593 47.6916H175.265Z" fill="#FF1A1A"/>
</svg>
