<svg width="199" height="87" viewBox="0 0 199 87" fill="none" xmlns="http://www.w3.org/2000/svg">
<path d="M29.0313 7.25C29.9938 7.25 30.9168 7.63194 31.5974 8.31175C32.2779 8.99157 32.6603 9.91357 32.6603 10.875V18.125C35.5476 18.125 38.3167 19.2708 40.3584 21.3102C42.4 23.3497 43.547 26.1157 43.547 29V50.7497C43.547 53.6344 42.4 56.4002 40.3584 58.4396C38.3167 60.4791 35.5476 61.6252 32.6603 61.6252V76.1249C32.6603 77.0865 32.2779 78.0086 31.5974 78.6884C30.9168 79.3682 29.9938 79.7501 29.0313 79.7501C28.0689 79.7501 27.1458 79.3682 26.4653 78.6884C25.7847 78.0086 25.4024 77.0865 25.4024 76.1249V61.6252C22.5151 61.6252 19.746 60.4791 17.7043 58.4396C15.6626 56.4002 14.5156 53.6344 14.5156 50.7497V29C14.5156 26.1157 15.6626 23.3497 17.7043 21.3102C19.746 19.2708 22.5151 18.125 25.4024 18.125V10.875C25.4024 9.91357 25.7847 8.99157 26.4653 8.31175C27.1458 7.63194 28.0689 7.25 29.0313 7.25ZM61.6915 7.25C62.5807 7.2501 63.4384 7.5761 64.1028 8.16608C64.7666 8.75611 65.1909 9.56911 65.2953 10.4509L65.3206 10.875V25.375C68.0975 25.3748 70.7695 26.4347 72.7899 28.3376C74.8103 30.2406 76.0261 32.8429 76.1891 35.612L76.2073 36.25V58.0001C76.2073 60.774 75.1465 63.4431 73.2416 65.4613C71.3367 67.4795 68.7314 68.694 65.9591 68.8569L65.3206 68.8751V76.1249C65.3196 77.049 64.9656 77.9378 64.3306 78.6095C63.6957 79.2812 62.8278 79.6858 61.9042 79.74C60.9811 79.7941 60.0716 79.4936 59.3622 78.9008C58.6533 78.308 58.1976 77.4668 58.0882 76.5493L58.0629 76.1249V68.8751C55.286 68.8751 52.6139 67.8154 50.5935 65.9125C48.573 64.0091 47.357 61.4072 47.1941 58.6379L47.1759 58.0001V36.25C47.1758 33.4761 48.2368 30.807 50.1418 28.7888C52.0468 26.7706 54.6521 25.5559 57.4239 25.3931L58.0629 25.375V10.875C58.0629 9.91357 58.4452 8.99157 59.1258 8.31175C59.8063 7.63194 60.7294 7.25 61.6915 7.25Z" fill="#FF1A1A"/>
<path d="M97.7535 52.9081C96.3524 52.9081 95.0612 52.689 93.8799 52.2505C92.7152 51.7953 91.6939 51.1544 90.8164 50.3284C89.9556 49.5023 89.2806 48.5328 88.7909 47.42C88.3185 46.3072 88.082 45.0848 88.082 43.7528C88.082 42.4209 88.3185 41.1985 88.7909 40.0857C89.2806 38.9729 89.9642 38.0034 90.8417 37.1772C91.7192 36.3511 92.7492 35.7188 93.9305 35.2804C95.1118 34.8252 96.4117 34.5976 97.8295 34.5976C99.3992 34.5976 100.808 34.8589 102.058 35.3816C103.324 35.9043 104.387 36.663 105.248 37.6578L102.615 40.0857C101.973 39.4113 101.273 38.9139 100.513 38.5935C99.7537 38.2563 98.9268 38.0877 98.032 38.0877C97.1712 38.0877 96.3864 38.2226 95.6775 38.4924C94.9685 38.7621 94.3523 39.1499 93.8292 39.6557C93.3229 40.1615 92.9264 40.7601 92.6393 41.4514C92.3694 42.1427 92.2342 42.9098 92.2342 43.7528C92.2342 44.579 92.3694 45.3377 92.6393 46.029C92.9264 46.7203 93.3229 47.3273 93.8292 47.8499C94.3523 48.3557 94.9599 48.7435 95.6521 49.0133C96.361 49.283 97.1373 49.4179 97.9814 49.4179C98.7916 49.4179 99.5764 49.2915 100.336 49.0386C101.112 48.7688 101.864 48.322 102.589 47.6982L104.919 50.6572C103.956 51.382 102.834 51.9384 101.551 52.3264C100.285 52.7143 99.0194 52.9081 97.7535 52.9081ZM101.171 50.1261V43.4746H104.919V50.6572L101.171 50.1261ZM115.21 52.8069C113.657 52.8069 112.29 52.5034 111.108 51.8964C109.944 51.2894 109.041 50.4633 108.399 49.4179C107.758 48.3557 107.437 47.1502 107.437 45.8014C107.437 44.4357 107.75 43.2302 108.374 42.1848C109.016 41.1226 109.885 40.2964 110.982 39.7063C112.079 39.0993 113.32 38.7958 114.703 38.7958C116.037 38.7958 117.235 39.0825 118.299 39.6557C119.379 40.2121 120.231 41.0214 120.856 42.0836C121.481 43.129 121.793 44.3851 121.793 45.8519C121.793 46.0037 121.784 46.1807 121.767 46.3831C121.75 46.5685 121.734 46.7456 121.717 46.9142H110.653V44.6127H119.64L118.121 45.2956C118.121 44.5874 117.978 43.972 117.691 43.4493C117.404 42.9267 117.007 42.522 116.501 42.2354C115.995 41.9319 115.404 41.7801 114.729 41.7801C114.054 41.7801 113.455 41.9319 112.931 42.2354C112.425 42.522 112.028 42.9351 111.741 43.4746C111.455 43.9973 111.311 44.6212 111.311 45.3461V45.9531C111.311 46.695 111.471 47.3525 111.792 47.9258C112.13 48.4822 112.594 48.9121 113.184 49.2156C113.792 49.5023 114.501 49.6456 115.311 49.6456C116.037 49.6456 116.67 49.5359 117.21 49.3168C117.767 49.0976 118.273 48.7688 118.729 48.3304L120.83 50.6066C120.206 51.3147 119.421 51.8625 118.476 52.2505C117.531 52.6213 116.442 52.8069 115.21 52.8069ZM129.005 52.8069C127.84 52.8069 126.718 52.6718 125.637 52.4022C124.574 52.1154 123.73 51.7614 123.106 51.34L124.422 48.5075C125.047 48.8953 125.781 49.2156 126.625 49.4685C127.486 49.7046 128.33 49.8226 129.157 49.8226C130.068 49.8226 130.71 49.713 131.081 49.4938C131.469 49.2746 131.663 48.9712 131.663 48.5833C131.663 48.263 131.511 48.0269 131.207 47.8752C130.921 47.7066 130.532 47.5802 130.043 47.4958C129.554 47.4115 129.013 47.3273 128.422 47.2429C127.849 47.1586 127.266 47.0491 126.675 46.9142C126.085 46.7624 125.545 46.5432 125.055 46.2566C124.566 45.97 124.169 45.5822 123.865 45.0932C123.578 44.6043 123.435 43.972 123.435 43.1964C123.435 42.3365 123.68 41.5778 124.169 40.9203C124.675 40.2627 125.401 39.7484 126.346 39.3775C127.292 38.9897 128.422 38.7958 129.739 38.7958C130.668 38.7958 131.612 38.897 132.574 39.0993C133.537 39.3017 134.339 39.5967 134.98 39.9845L133.663 42.7918C133.005 42.404 132.339 42.1427 131.663 42.0078C131.005 41.856 130.364 41.7801 129.739 41.7801C128.861 41.7801 128.22 41.8982 127.815 42.1342C127.41 42.3703 127.207 42.6738 127.207 43.0447C127.207 43.3819 127.351 43.6348 127.637 43.8034C127.941 43.972 128.338 44.1069 128.827 44.2081C129.317 44.3092 129.849 44.4019 130.422 44.4862C131.013 44.5537 131.604 44.6633 132.195 44.815C132.786 44.9668 133.317 45.1859 133.79 45.4726C134.279 45.7423 134.676 46.1217 134.98 46.6107C135.284 47.0827 135.435 47.7066 135.435 48.4822C135.435 49.3252 135.182 50.0755 134.676 50.7331C134.17 51.3739 133.435 51.8797 132.473 52.2505C131.528 52.6213 130.372 52.8069 129.005 52.8069ZM141.822 52.6046V38.2394H136.151V34.9011H151.595V38.2394H145.924V52.6046H141.822ZM158.62 52.8069C157.168 52.8069 155.877 52.5034 154.747 51.8964C153.633 51.2894 152.746 50.4633 152.088 49.4179C151.447 48.3557 151.126 47.1502 151.126 45.8014C151.126 44.4357 151.447 43.2302 152.088 42.1848C152.746 41.1226 153.633 40.2964 154.747 39.7063C155.877 39.0993 157.168 38.7958 158.62 38.7958C160.055 38.7958 161.337 39.0993 162.469 39.7063C163.599 40.2964 164.485 41.1141 165.127 42.1595C165.768 43.2049 166.089 44.4188 166.089 45.8014C166.089 47.1502 165.768 48.3557 165.127 49.4179C164.485 50.4633 163.599 51.2894 162.469 51.8964C161.337 52.5034 160.055 52.8069 158.62 52.8069ZM158.62 49.5697C159.278 49.5697 159.869 49.4179 160.392 49.1144C160.916 48.811 161.329 48.381 161.633 47.8246C161.937 47.2514 162.089 46.5769 162.089 45.8014C162.089 45.0089 161.937 44.3345 161.633 43.7781C161.329 43.2217 160.916 42.7918 160.392 42.4883C159.869 42.1848 159.278 42.0331 158.62 42.0331C157.962 42.0331 157.371 42.1848 156.848 42.4883C156.324 42.7918 155.903 43.2217 155.582 43.7781C155.278 44.3345 155.126 45.0089 155.126 45.8014C155.126 46.5769 155.278 47.2514 155.582 47.8246C155.903 48.381 156.324 48.811 156.848 49.1144C157.371 49.4179 157.962 49.5697 158.62 49.5697ZM175.311 52.8069C173.843 52.8069 172.535 52.512 171.387 51.9217C170.24 51.3147 169.336 50.4801 168.678 49.4179C168.037 48.3557 167.716 47.1502 167.716 45.8014C167.716 44.4357 168.037 43.2302 168.678 42.1848C169.336 41.1226 170.24 40.2964 171.387 39.7063C172.535 39.0993 173.843 38.7958 175.311 38.7958C176.746 38.7958 177.995 39.0993 179.058 39.7063C180.122 40.2964 180.907 41.1479 181.413 42.2607L178.35 43.9046C177.995 43.2639 177.548 42.7918 177.008 42.4883C176.485 42.1848 175.911 42.0331 175.286 42.0331C174.611 42.0331 174.003 42.1848 173.463 42.4883C172.923 42.7918 172.493 43.2217 172.172 43.7781C171.868 44.3345 171.716 45.0089 171.716 45.8014C171.716 46.5938 171.868 47.2682 172.172 47.8246C172.493 48.381 172.923 48.811 173.463 49.1144C174.003 49.4179 174.611 49.5697 175.286 49.5697C175.911 49.5697 176.485 49.4264 177.008 49.1397C177.548 48.8363 177.995 48.3557 178.35 47.6982L181.413 49.3674C180.907 50.4633 180.122 51.3147 179.058 51.9217C177.995 52.512 176.746 52.8069 175.311 52.8069ZM186.879 49.8226L186.98 45.0174L193.335 38.9982H198.044L191.943 45.1944L189.892 46.8636L186.879 49.8226ZM183.613 52.6046V33.8389H187.563V52.6046H183.613ZM193.766 52.6046L189.158 46.8889L191.639 43.8287L198.551 52.6046H193.766Z" fill="#FF1A1A"/>
</svg>
