<svg width="33" height="33" viewBox="0 0 33 33" fill="none" xmlns="http://www.w3.org/2000/svg">
<path d="M31.0783 11.0366C33.0054 9.10956 32.1266 6.85873 31.0783 5.76414L26.4533 1.13914C24.5108 -0.78794 22.2754 0.0908098 21.1808 1.13914L18.56 3.77539H14.5671C11.6379 3.77539 9.94206 5.31706 9.07873 7.08998L2.23373 13.935V20.1016L1.13914 21.1808C-0.78794 23.1233 0.0908098 25.3587 1.13914 26.4533L5.76414 31.0783C6.59664 31.9108 7.49081 32.2191 8.33873 32.2191C9.43331 32.2191 10.4354 31.6796 11.0366 31.0783L15.1991 26.9004H20.7337C23.3546 26.9004 24.6804 25.2662 25.1583 23.6629C26.9004 23.2004 27.8562 21.8746 28.2416 20.5796C30.6312 19.9629 31.5254 17.6966 31.5254 16.1087V11.4837H30.6158L31.0783 11.0366ZM28.4421 16.1087C28.4421 16.8025 28.1491 17.6504 26.9004 17.6504H25.3587V19.1921C25.3587 19.8858 25.0658 20.7337 23.8171 20.7337H22.2754V22.2754C22.2754 22.9691 21.9825 23.8171 20.7337 23.8171H13.935L8.87831 28.8737C8.40039 29.3208 8.12289 29.0587 7.95331 28.8891L3.34373 24.295C2.89664 23.8171 3.15873 23.5396 3.32831 23.37L5.31706 21.3658V15.1991L8.40039 12.1158V14.5671C8.40039 16.4325 9.63373 19.1921 13.0254 19.1921C16.4171 19.1921 17.6504 16.4325 17.6504 14.5671H28.4421V16.1087ZM28.8891 8.84748L26.2683 11.4837H14.5671V14.5671C14.5671 15.2608 14.2741 16.1087 13.0254 16.1087C11.7766 16.1087 11.4837 15.2608 11.4837 14.5671V9.94206C11.4837 9.23289 11.7458 6.85873 14.5671 6.85873H19.8241L23.3391 3.34373C23.8171 2.89664 24.0946 3.15873 24.2641 3.32831L28.8737 7.92248C29.3208 8.40039 29.0587 8.67789 28.8891 8.84748Z" fill="#F8F8F8"/>
</svg>
