<svg width="150" height="66" viewBox="0 0 150 66" fill="none" xmlns="http://www.w3.org/2000/svg">
<path d="M21.8829 5.47754C22.6084 5.47754 23.3041 5.76609 23.8171 6.27969C24.3301 6.79329 24.6183 7.48986 24.6183 8.21623V13.6936C26.7946 13.6936 28.8819 14.5592 30.4209 16.1C31.9598 17.6408 32.8244 19.7306 32.8244 21.9096V38.3415C32.8244 40.5208 31.9598 42.6104 30.4209 44.1512C28.8819 45.692 26.7946 46.5579 24.6183 46.5579V57.5124C24.6183 58.2388 24.3301 58.9354 23.8171 59.449C23.3041 59.9626 22.6084 60.2512 21.8829 60.2512C21.1574 60.2512 20.4617 59.9626 19.9487 59.449C19.4357 58.9354 19.1475 58.2388 19.1475 57.5124V46.5579C16.9711 46.5579 14.8839 45.692 13.3449 44.1512C11.806 42.6104 10.9414 40.5208 10.9414 38.3415V21.9096C10.9414 19.7306 11.806 17.6408 13.3449 16.1C14.8839 14.5592 16.9711 13.6936 19.1475 13.6936V8.21623C19.1475 7.48986 19.4357 6.79329 19.9487 6.27969C20.4617 5.76609 21.1574 5.47754 21.8829 5.47754ZM46.5011 5.47754C47.1713 5.47762 47.8179 5.72391 48.3187 6.16963C48.819 6.6154 49.1389 7.22962 49.2175 7.8958L49.2366 8.21623V19.1709C51.3297 19.1708 53.3438 19.9715 54.8667 21.4092C56.3897 22.8469 57.3061 24.8129 57.429 26.905L57.4427 27.3869V43.8191C57.4427 45.9148 56.6431 47.9313 55.2072 49.4561C53.7713 50.9808 51.8076 51.8983 49.7179 52.0214L49.2366 52.0351V57.5124C49.2358 58.2105 48.969 58.882 48.4904 59.3894C48.0118 59.8969 47.3576 60.2026 46.6614 60.2435C45.9656 60.2844 45.2801 60.0574 44.7454 59.6095C44.211 59.1617 43.8675 58.5262 43.7851 57.833L43.766 57.5124V52.0351C41.6729 52.0351 39.6587 51.2345 38.1358 49.7969C36.6128 48.3589 35.6962 46.3932 35.5734 44.301L35.5597 43.8191V27.3869C35.5596 25.2913 36.3593 23.2748 37.7953 21.7501C39.2313 20.2253 41.195 19.3076 43.2843 19.1846L43.766 19.1709V8.21623C43.766 7.48986 44.0541 6.79329 44.5671 6.27969C45.0801 5.76609 45.7759 5.47754 46.5011 5.47754Z" fill="#FF1A1A"/>
<path d="M21.8829 5.47754C22.6084 5.47754 23.3041 5.76609 23.8171 6.27969C24.3301 6.79329 24.6183 7.48986 24.6183 8.21623V13.6936C26.7946 13.6936 28.8819 14.5592 30.4209 16.1C31.9598 17.6408 32.8244 19.7306 32.8244 21.9096V38.3415C32.8244 40.5208 31.9598 42.6104 30.4209 44.1512C28.8819 45.692 26.7946 46.5579 24.6183 46.5579V57.5124C24.6183 58.2388 24.3301 58.9354 23.8171 59.449C23.3041 59.9626 22.6084 60.2512 21.8829 60.2512C21.1574 60.2512 20.4617 59.9626 19.9487 59.449C19.4357 58.9354 19.1475 58.2388 19.1475 57.5124V46.5579C16.9711 46.5579 14.8839 45.692 13.3449 44.1512C11.806 42.6104 10.9414 40.5208 10.9414 38.3415V21.9096C10.9414 19.7306 11.806 17.6408 13.3449 16.1C14.8839 14.5592 16.9711 13.6936 19.1475 13.6936V8.21623C19.1475 7.48986 19.4357 6.79329 19.9487 6.27969C20.4617 5.76609 21.1574 5.47754 21.8829 5.47754ZM46.5011 5.47754C47.1713 5.47762 47.8179 5.72391 48.3187 6.16963C48.819 6.6154 49.1389 7.22962 49.2175 7.8958L49.2366 8.21623V19.1709C51.3297 19.1708 53.3438 19.9715 54.8667 21.4092C56.3897 22.8469 57.3061 24.8129 57.429 26.905L57.4427 27.3869V43.8191C57.4427 45.9148 56.6431 47.9313 55.2072 49.4561C53.7713 50.9808 51.8076 51.8983 49.7179 52.0214L49.2366 52.0351V57.5124C49.2358 58.2105 48.969 58.882 48.4904 59.3894C48.0118 59.8969 47.3576 60.2026 46.6614 60.2435C45.9656 60.2844 45.2801 60.0574 44.7454 59.6095C44.211 59.1617 43.8675 58.5262 43.7851 57.833L43.766 57.5124V52.0351C41.6729 52.0351 39.6587 51.2345 38.1358 49.7969C36.6128 48.3589 35.6962 46.3932 35.5734 44.301L35.5597 43.8191V27.3869C35.5596 25.2913 36.3593 23.2748 37.7953 21.7501C39.2313 20.2253 41.195 19.3076 43.2843 19.1846L43.766 19.1709V8.21623C43.766 7.48986 44.0541 6.79329 44.5671 6.27969C45.0801 5.76609 45.7759 5.47754 46.5011 5.47754Z" fill="#FF1A1A"/>
<path d="M73.6831 39.9721C72.627 39.9721 71.6538 39.8067 70.7633 39.4754C69.8854 39.1314 69.1156 38.6473 68.4541 38.0232C67.8053 37.3991 67.2965 36.6666 66.9274 35.8259C66.5713 34.9852 66.3931 34.0617 66.3931 33.0554C66.3931 32.0491 66.5713 31.1256 66.9274 30.2849C67.2965 29.4442 67.8118 28.7117 68.4732 28.0876C69.1347 27.4634 69.911 26.9857 70.8015 26.6545C71.6919 26.3106 72.6717 26.1386 73.7404 26.1386C74.9236 26.1386 75.9858 26.3361 76.9274 26.731C77.8816 27.1258 78.6831 27.699 79.332 28.4506L77.3473 30.2849C76.8637 29.7754 76.3358 29.3996 75.7633 29.1576C75.1908 28.9028 74.5675 28.7754 73.8931 28.7754C73.2442 28.7754 72.6526 28.8773 72.1183 29.0811C71.5839 29.2849 71.1194 29.5779 70.7251 29.9601C70.3434 30.3422 70.0446 30.7944 69.8282 31.3167C69.6247 31.8389 69.5228 32.4185 69.5228 33.0554C69.5228 33.6795 69.6247 34.2528 69.8282 34.775C70.0446 35.2973 70.3434 35.7559 70.7251 36.1507C71.1194 36.5329 71.5774 36.8259 72.0992 37.0297C72.6335 37.2335 73.2186 37.3354 73.8549 37.3354C74.4656 37.3354 75.0572 37.2398 75.6297 37.0488C76.2148 36.845 76.7812 36.5074 77.3282 36.0361L79.0839 38.2716C78.3587 38.8192 77.5125 39.2396 76.5457 39.5327C75.5915 39.8258 74.6373 39.9721 73.6831 39.9721ZM76.2595 37.8704V32.8452H79.0839V38.2716L76.2595 37.8704ZM86.8412 39.8957C85.6709 39.8957 84.6404 39.6664 83.7496 39.2079C82.8717 38.7493 82.1912 38.1251 81.7076 37.3354C81.2244 36.5329 80.9824 35.6221 80.9824 34.6031C80.9824 33.5713 81.2179 32.6605 81.6885 31.8708C82.1721 31.0683 82.8274 30.4441 83.6541 29.9983C84.4812 29.5397 85.4163 29.3104 86.4595 29.3104C87.4648 29.3104 88.3679 29.527 89.1694 29.9601C89.9839 30.3804 90.6263 30.9918 91.0969 31.7943C91.5679 32.5841 91.803 33.5331 91.803 34.6413C91.803 34.7559 91.7969 34.8897 91.7839 35.0425C91.7713 35.1827 91.7587 35.3164 91.7457 35.4438H83.406V33.705H90.1809L89.0358 34.2209C89.0358 33.6859 88.9278 33.221 88.7114 32.8261C88.4954 32.4312 88.1961 32.1255 87.8144 31.909C87.4328 31.6797 86.9877 31.565 86.4786 31.565C85.9698 31.565 85.5183 31.6797 85.1236 31.909C84.7419 32.1255 84.4431 32.4376 84.2267 32.8452C84.0106 33.2401 83.9022 33.7114 83.9022 34.2591V34.7177C83.9022 35.2782 84.0232 35.775 84.2648 36.2081C84.5194 36.6284 84.8694 36.9532 85.3144 37.1825C85.7725 37.3991 86.3068 37.5073 86.9175 37.5073C87.4648 37.5073 87.9419 37.4245 88.3488 37.2589C88.7686 37.0934 89.1503 36.845 89.4938 36.5138L91.0778 38.2334C90.6072 38.7684 90.0156 39.1823 89.303 39.4754C88.5908 39.7555 87.7702 39.8957 86.8412 39.8957ZM97.2392 39.8957C96.3614 39.8957 95.5156 39.7937 94.7011 39.59C93.8996 39.3733 93.2637 39.1058 92.7927 38.7875L93.785 36.6475C94.256 36.9405 94.8095 37.1825 95.4454 37.3736C96.0942 37.5519 96.7305 37.6411 97.3538 37.6411C98.0408 37.6411 98.5244 37.5583 98.8041 37.3927C99.0969 37.2271 99.2431 36.9978 99.2431 36.7048C99.2431 36.4628 99.1286 36.2845 98.8996 36.1698C98.6835 36.0425 98.3908 35.9469 98.0217 35.8832C97.653 35.8195 97.2457 35.7559 96.8003 35.6922C96.3679 35.6285 95.9289 35.5457 95.4835 35.4438C95.0385 35.3291 94.6312 35.1636 94.2621 34.947C93.8934 34.7304 93.5942 34.4375 93.3652 34.0681C93.1492 33.6987 93.0408 33.221 93.0408 32.635C93.0408 31.9854 93.2255 31.4122 93.5942 30.9154C93.9759 30.4186 94.5232 30.0301 95.2354 29.7499C95.948 29.4569 96.8003 29.3104 97.7927 29.3104C98.4927 29.3104 99.2049 29.3868 99.9301 29.5397C100.655 29.6926 101.26 29.9155 101.743 30.2084L100.751 32.3293C100.255 32.0363 99.7522 31.8389 99.2431 31.737C98.7469 31.6224 98.2637 31.565 97.7927 31.565C97.1312 31.565 96.6476 31.6542 96.3423 31.8325C96.037 32.0109 95.8843 32.2402 95.8843 32.5204C95.8843 32.7752 95.9927 32.9662 96.2087 33.0936C96.4377 33.221 96.737 33.3229 97.1057 33.3993C97.4747 33.4758 97.8755 33.5458 98.3079 33.6095C98.7534 33.6604 99.1988 33.7432 99.6438 33.8579C100.089 33.9725 100.49 34.1381 100.846 34.3547C101.215 34.5585 101.514 34.8451 101.743 35.2145C101.972 35.5711 102.087 36.0425 102.087 36.6284C102.087 37.2653 101.896 37.8322 101.514 38.3289C101.132 38.8131 100.579 39.1953 99.8538 39.4754C99.1415 39.7555 98.2698 39.8957 97.2392 39.8957ZM106.901 39.7429V28.8901H102.626V26.3679H114.267V28.8901H109.992V39.7429H106.901ZM119.563 39.8957C118.468 39.8957 117.495 39.6664 116.643 39.2079C115.803 38.7493 115.135 38.1251 114.639 37.3354C114.155 36.5329 113.914 35.6221 113.914 34.6031C113.914 33.5713 114.155 32.6605 114.639 31.8708C115.135 31.0683 115.803 30.4441 116.643 29.9983C117.495 29.5397 118.468 29.3104 119.563 29.3104C120.644 29.3104 121.611 29.5397 122.463 29.9983C123.316 30.4441 123.984 31.0619 124.467 31.8516C124.95 32.6414 125.192 33.5586 125.192 34.6031C125.192 35.6221 124.95 36.5329 124.467 37.3354C123.984 38.1251 123.316 38.7493 122.463 39.2079C121.611 39.6664 120.644 39.8957 119.563 39.8957ZM119.563 37.45C120.059 37.45 120.504 37.3354 120.898 37.1061C121.293 36.8768 121.605 36.552 121.834 36.1316C122.063 35.6986 122.177 35.189 122.177 34.6031C122.177 34.0044 122.063 33.4949 121.834 33.0745C121.605 32.6541 121.293 32.3293 120.898 32.1C120.504 31.8708 120.059 31.7561 119.563 31.7561C119.066 31.7561 118.621 31.8708 118.227 32.1C117.832 32.3293 117.514 32.6541 117.272 33.0745C117.043 33.4949 116.929 34.0044 116.929 34.6031C116.929 35.189 117.043 35.6986 117.272 36.1316C117.514 36.552 117.832 36.8768 118.227 37.1061C118.621 37.3354 119.066 37.45 119.563 37.45ZM132.144 39.8957C131.037 39.8957 130.051 39.6729 129.186 39.227C128.321 38.7684 127.64 38.1379 127.144 37.3354C126.661 36.5329 126.419 35.6221 126.419 34.6031C126.419 33.5713 126.661 32.6605 127.144 31.8708C127.64 31.0683 128.321 30.4441 129.186 29.9983C130.051 29.5397 131.037 29.3104 132.144 29.3104C133.226 29.3104 134.167 29.5397 134.968 29.9983C135.77 30.4441 136.361 31.0874 136.743 31.9281L134.434 33.17C134.167 32.686 133.83 32.3293 133.422 32.1C133.028 31.8708 132.596 31.7561 132.125 31.7561C131.616 31.7561 131.158 31.8708 130.751 32.1C130.344 32.3293 130.019 32.6541 129.777 33.0745C129.548 33.4949 129.434 34.0044 129.434 34.6031C129.434 35.2018 129.548 35.7113 129.777 36.1316C130.019 36.552 130.344 36.8768 130.751 37.1061C131.158 37.3354 131.616 37.45 132.125 37.45C132.596 37.45 133.028 37.3418 133.422 37.1252C133.83 36.8959 134.167 36.5329 134.434 36.0361L136.743 37.2972C136.361 38.1251 135.77 38.7684 134.968 39.227C134.167 39.6729 133.226 39.8957 132.144 39.8957ZM140.863 37.6411L140.94 34.0107L145.73 29.4633H149.279L144.68 34.1445L143.134 35.4056L140.863 37.6411ZM138.401 39.7429V25.5654H141.379V39.7429H138.401ZM146.054 39.7429L142.581 35.4247L144.451 33.1127L149.661 39.7429H146.054Z" fill="#FF1A1A"/>
</svg>
