<svg width="120" height="179" viewBox="0 0 180 79" fill="none" xmlns="http://www.w3.org/2000/svg">
<path d="M26.2587 6.57422C27.1292 6.57422 27.9642 6.92048 28.5797 7.5368C29.1953 8.15312 29.5411 8.989 29.5411 9.86065V16.4335C32.1528 16.4335 34.6575 17.4722 36.5043 19.3212C38.351 21.1701 39.3885 23.6778 39.3885 26.2927V46.0109C39.3885 48.6262 38.351 51.1336 36.5043 52.9826C34.6575 54.8315 32.1528 55.8706 29.5411 55.8706V69.016C29.5411 69.8877 29.1953 70.7237 28.5797 71.34C27.9642 71.9563 27.1292 72.3026 26.2587 72.3026C25.3881 72.3026 24.5532 71.9563 23.9377 71.34C23.3221 70.7237 22.9762 69.8877 22.9762 69.016V55.8706C20.3646 55.8706 17.8599 54.8315 16.0131 52.9826C14.1664 51.1336 13.1289 48.6262 13.1289 46.0109V26.2927C13.1289 23.6778 14.1664 21.1701 16.0131 19.3212C17.8599 17.4722 20.3646 16.4335 22.9762 16.4335V9.86065C22.9762 8.989 23.3221 8.15312 23.9377 7.5368C24.5532 6.92048 25.3881 6.57422 26.2587 6.57422ZM55.8005 6.57422C56.6048 6.57431 57.3807 6.86986 57.9816 7.40473C58.5821 7.93965 58.9659 8.67671 59.0602 9.47614L59.0831 9.86065V23.0063C61.5949 23.0061 64.0118 23.967 65.8393 25.6922C67.6668 27.4174 68.7665 29.7766 68.914 32.2871L68.9305 32.8655V52.5841C68.9305 55.0989 67.9709 57.5187 66.2479 59.3484C64.5248 61.1781 62.1683 62.2792 59.6607 62.4268L59.0831 62.4433V69.016C59.0822 69.8538 58.7621 70.6595 58.1877 71.2685C57.6134 71.8775 56.8283 72.2443 55.9929 72.2934C55.1579 72.3425 54.3353 72.0701 53.6937 71.5326C53.0524 70.9952 52.6402 70.2326 52.5413 69.4007L52.5184 69.016V62.4433C50.0066 62.4433 47.5897 61.4826 45.7621 59.7575C43.9346 58.0319 42.8347 55.673 42.6873 53.1623L42.6709 52.5841V32.8655C42.6708 30.3507 43.6304 27.9309 45.3536 26.1012C47.0767 24.2715 49.4332 23.1703 51.9404 23.0227L52.5184 23.0063V9.86065C52.5184 8.989 52.8642 8.15312 53.4798 7.5368C54.0953 6.92048 54.9303 6.57422 55.8005 6.57422Z" fill="#FF1A1A"/>
<path d="M26.2587 6.57422C27.1292 6.57422 27.9642 6.92048 28.5797 7.5368C29.1953 8.15312 29.5411 8.989 29.5411 9.86065V16.4335C32.1528 16.4335 34.6575 17.4722 36.5043 19.3212C38.351 21.1701 39.3885 23.6778 39.3885 26.2927V46.0109C39.3885 48.6262 38.351 51.1336 36.5043 52.9826C34.6575 54.8315 32.1528 55.8706 29.5411 55.8706V69.016C29.5411 69.8877 29.1953 70.7237 28.5797 71.34C27.9642 71.9563 27.1292 72.3026 26.2587 72.3026C25.3881 72.3026 24.5532 71.9563 23.9377 71.34C23.3221 70.7237 22.9762 69.8877 22.9762 69.016V55.8706C20.3646 55.8706 17.8599 54.8315 16.0131 52.9826C14.1664 51.1336 13.1289 48.6262 13.1289 46.0109V26.2927C13.1289 23.6778 14.1664 21.1701 16.0131 19.3212C17.8599 17.4722 20.3646 16.4335 22.9762 16.4335V9.86065C22.9762 8.989 23.3221 8.15312 23.9377 7.5368C24.5532 6.92048 25.3881 6.57422 26.2587 6.57422ZM55.8005 6.57422C56.6048 6.57431 57.3807 6.86986 57.9816 7.40473C58.5821 7.93965 58.9659 8.67671 59.0602 9.47614L59.0831 9.86065V23.0063C61.5949 23.0061 64.0118 23.967 65.8393 25.6922C67.6668 27.4174 68.7665 29.7766 68.914 32.2871L68.9305 32.8655V52.5841C68.9305 55.0989 67.9709 57.5187 66.2479 59.3484C64.5248 61.1781 62.1683 62.2792 59.6607 62.4268L59.0831 62.4433V69.016C59.0822 69.8538 58.7621 70.6595 58.1877 71.2685C57.6134 71.8775 56.8283 72.2443 55.9929 72.2934C55.1579 72.3425 54.3353 72.0701 53.6937 71.5326C53.0524 70.9952 52.6402 70.2326 52.5413 69.4007L52.5184 69.016V62.4433C50.0066 62.4433 47.5897 61.4826 45.7621 59.7575C43.9346 58.0319 42.8347 55.673 42.6873 53.1623L42.6709 52.5841V32.8655C42.6708 30.3507 43.6304 27.9309 45.3536 26.1012C47.0767 24.2715 49.4332 23.1703 51.9404 23.0227L52.5184 23.0063V9.86065C52.5184 8.989 52.8642 8.15312 53.4798 7.5368C54.0953 6.92048 54.9303 6.57422 55.8005 6.57422Z" fill="white"/>
<path d="M88.42 47.9677C87.1526 47.9677 85.9847 47.7692 84.9161 47.3716C83.8627 46.9589 82.9389 46.3779 82.1452 45.629C81.3665 44.8801 80.756 44.0011 80.3131 42.9923C79.8858 41.9834 79.6719 40.8752 79.6719 39.6676C79.6719 38.4601 79.8858 37.3519 80.3131 36.343C80.756 35.3342 81.3743 34.4552 82.1681 33.7062C82.9618 32.9573 83.8934 32.3841 84.962 31.9866C86.0305 31.5739 87.2062 31.3675 88.4887 31.3675C89.9085 31.3675 91.1832 31.6045 92.3131 32.0783C93.4581 32.5522 94.42 33.24 95.1986 34.1419L92.8169 36.343C92.2366 35.7316 91.6032 35.2807 90.9161 34.9902C90.2291 34.6845 89.4812 34.5317 88.6719 34.5317C87.8933 34.5317 87.1833 34.654 86.5421 34.8985C85.9009 35.1431 85.3435 35.4947 84.8704 35.9532C84.4123 36.4118 84.0537 36.9544 83.794 37.5812C83.5499 38.2079 83.4276 38.9033 83.4276 39.6676C83.4276 40.4166 83.5499 41.1045 83.794 41.7312C84.0537 42.3579 84.4123 42.9082 84.8704 43.3821C85.3435 43.8406 85.8931 44.1922 86.5192 44.4368C87.1604 44.6813 87.8626 44.8036 88.6261 44.8036C89.3589 44.8036 90.0688 44.689 90.7558 44.4597C91.458 44.2151 92.1377 43.81 92.794 43.2445L94.9009 45.9271C94.0307 46.5842 93.0152 47.0887 91.8551 47.4404C90.71 47.7921 89.565 47.9677 88.42 47.9677ZM91.5116 45.4456V39.4154H94.9009V45.9271L91.5116 45.4456ZM104.21 47.876C102.805 47.876 101.569 47.6009 100.5 47.0506C99.4462 46.5003 98.6296 45.7513 98.0493 44.8036C97.4694 43.8406 97.179 42.7477 97.179 41.5249C97.179 40.2867 97.4616 39.1938 98.0264 38.2461C98.6067 37.2831 99.3931 36.5341 100.385 35.9991C101.378 35.4488 102.5 35.1737 103.752 35.1737C104.958 35.1737 106.042 35.4335 107.003 35.9532C107.981 36.4577 108.752 37.1914 109.316 38.1544C109.882 39.1021 110.164 40.2409 110.164 41.5707C110.164 41.7083 110.156 41.8688 110.141 42.0522C110.126 42.2204 110.111 42.3809 110.095 42.5337H100.087V40.4472H108.217L106.843 41.0663C106.843 40.4243 106.714 39.8663 106.454 39.3925C106.195 38.9187 105.836 38.5518 105.378 38.2919C104.92 38.0168 104.385 37.8792 103.774 37.8792C103.164 37.8792 102.622 38.0168 102.149 38.2919C101.691 38.5518 101.332 38.9263 101.072 39.4154C100.813 39.8893 100.683 40.4549 100.683 41.1121V41.6624C100.683 42.335 100.828 42.9311 101.118 43.4508C101.423 43.9553 101.843 44.3451 102.378 44.6202C102.927 44.8801 103.568 45.01 104.301 45.01C104.958 45.01 105.53 44.9106 106.019 44.7119C106.523 44.5132 106.981 44.2151 107.393 43.8177L109.294 45.8813C108.729 46.5233 108.019 47.0199 107.164 47.3716C106.309 47.7077 105.324 47.876 104.21 47.876ZM116.687 47.876C115.634 47.876 114.619 47.7536 113.641 47.5092C112.68 47.2492 111.917 46.9282 111.351 46.5462L112.542 43.9782C113.107 44.3298 113.772 44.6202 114.535 44.8495C115.313 45.0635 116.077 45.1705 116.825 45.1705C117.649 45.1705 118.229 45.0711 118.565 44.8724C118.916 44.6737 119.092 44.3986 119.092 44.047C119.092 43.7566 118.954 43.5426 118.68 43.405C118.42 43.2521 118.069 43.1375 117.626 43.0611C117.184 42.9846 116.695 42.9082 116.161 42.8318C115.642 42.7553 115.115 42.656 114.58 42.5337C114.046 42.3961 113.558 42.1974 113.115 41.9376C112.672 41.6777 112.313 41.3262 112.038 40.8829C111.779 40.4396 111.649 39.8663 111.649 39.1632C111.649 38.3837 111.871 37.6958 112.313 37.0997C112.771 36.5035 113.428 36.0373 114.283 35.701C115.138 35.3494 116.161 35.1737 117.351 35.1737C118.191 35.1737 119.046 35.2654 119.916 35.4488C120.787 35.6322 121.512 35.8997 122.092 36.2513L120.901 38.7964C120.306 38.4448 119.703 38.2079 119.092 38.0856C118.496 37.948 117.917 37.8792 117.351 37.8792C116.558 37.8792 115.977 37.9862 115.611 38.2002C115.245 38.4142 115.061 38.6894 115.061 39.0256C115.061 39.3314 115.191 39.5607 115.451 39.7135C115.725 39.8663 116.085 39.9886 116.527 40.0804C116.97 40.1721 117.451 40.2561 117.97 40.3326C118.504 40.3937 119.039 40.4931 119.573 40.6306C120.107 40.7682 120.588 40.9669 121.016 41.2268C121.458 41.4713 121.817 41.8153 122.092 42.2586C122.367 42.6865 122.504 43.2521 122.504 43.9553C122.504 44.7196 122.275 45.3998 121.817 45.9959C121.359 46.5769 120.695 47.0355 119.825 47.3716C118.97 47.7077 117.924 47.876 116.687 47.876ZM128.281 47.6926V34.6692H123.151V31.6427H137.121V34.6692H131.991V47.6926H128.281ZM143.475 47.876C142.162 47.876 140.994 47.6009 139.971 47.0506C138.964 46.5003 138.162 45.7513 137.567 44.8036C136.987 43.8406 136.697 42.7477 136.697 41.5249C136.697 40.2867 136.987 39.1938 137.567 38.2461C138.162 37.2831 138.964 36.5341 139.971 35.9991C140.994 35.4488 142.162 35.1737 143.475 35.1737C144.773 35.1737 145.933 35.4488 146.956 35.9991C147.979 36.5341 148.78 37.2754 149.361 38.2232C149.941 39.1709 150.231 40.2714 150.231 41.5249C150.231 42.7477 149.941 43.8406 149.361 44.8036C148.78 45.7513 147.979 46.5003 146.956 47.0506C145.933 47.6009 144.773 47.876 143.475 47.876ZM143.475 44.9412C144.071 44.9412 144.605 44.8036 145.078 44.5285C145.551 44.2533 145.926 43.8636 146.2 43.3591C146.475 42.8394 146.613 42.228 146.613 41.5249C146.613 40.8064 146.475 40.195 146.2 39.6906C145.926 39.1861 145.551 38.7964 145.078 38.5212C144.605 38.2461 144.071 38.1085 143.475 38.1085C142.88 38.1085 142.345 38.2461 141.872 38.5212C141.399 38.7964 141.017 39.1861 140.727 39.6906C140.452 40.195 140.315 40.8064 140.315 41.5249C140.315 42.228 140.452 42.8394 140.727 43.3591C141.017 43.8636 141.399 44.2533 141.872 44.5285C142.345 44.8036 142.88 44.9412 143.475 44.9412ZM158.573 47.876C157.245 47.876 156.061 47.6087 155.023 47.0735C153.985 46.5233 153.168 45.7666 152.573 44.8036C151.993 43.8406 151.703 42.7477 151.703 41.5249C151.703 40.2867 151.993 39.1938 152.573 38.2461C153.168 37.2831 153.985 36.5341 155.023 35.9991C156.061 35.4488 157.245 35.1737 158.573 35.1737C159.871 35.1737 161 35.4488 161.962 35.9991C162.924 36.5341 163.634 37.306 164.092 38.3149L161.321 39.8052C161 39.2243 160.596 38.7964 160.107 38.5212C159.634 38.2461 159.115 38.1085 158.55 38.1085C157.939 38.1085 157.39 38.2461 156.901 38.5212C156.413 38.7964 156.023 39.1861 155.733 39.6906C155.458 40.195 155.321 40.8064 155.321 41.5249C155.321 42.2433 155.458 42.8547 155.733 43.3591C156.023 43.8636 156.413 44.2533 156.901 44.5285C157.39 44.8036 157.939 44.9412 158.55 44.9412C159.115 44.9412 159.634 44.8113 160.107 44.5514C160.596 44.2763 161 43.8406 161.321 43.2445L164.092 44.7578C163.634 45.7513 162.924 46.5233 161.962 47.0735C161 47.6087 159.871 47.876 158.573 47.876ZM169.036 45.1705L169.128 40.8141L174.876 35.3571H179.135L173.616 40.9746L171.761 42.4878L169.036 45.1705ZM166.082 47.6926V30.6797H169.654V47.6926H166.082ZM175.265 47.6926L171.097 42.5108L173.341 39.7364L179.593 47.6926H175.265Z" fill="white"/>
</svg>
