<svg width="20" height="20" viewBox="0 0 20 20" fill="none" xmlns="http://www.w3.org/2000/svg">
<path d="M18.261 6.33185C18.0266 6.11935 17.7087 5.99998 17.3772 5.99998C17.0458 5.99998 16.7279 6.11935 16.4935 6.33185L10.306 11.9427L4.11847 6.33185C3.88272 6.12537 3.56696 6.01112 3.23922 6.0137C2.91147 6.01629 2.59796 6.1355 2.3662 6.34566C2.13444 6.55582 2.00298 6.84011 2.00013 7.13731C1.99728 7.43451 2.12327 7.72084 2.35097 7.93462L9.42222 14.3468C9.65663 14.5593 9.97451 14.6787 10.306 14.6787C10.6374 14.6787 10.9553 14.5593 11.1897 14.3468L18.261 7.93462C18.4953 7.72206 18.627 7.4338 18.627 7.13323C18.627 6.83267 18.4953 6.54441 18.261 6.33185Z" fill="#6E6E6E"/>
</svg>
