<svg width="16" height="9" viewBox="0 0 16 9" fill="none" xmlns="http://www.w3.org/2000/svg">
<path d="M12.5 5H3.5C3.22 5 3 4.78 3 4.5C3 4.22 3.22 4 3.5 4H12.5C12.78 4 13 4.22 13 4.5C13 4.78 12.78 5 12.5 5Z" fill="black"/>
<path d="M6 8.5C5.93442 8.5008 5.86941 8.48787 5.80913 8.46203C5.74885 8.4362 5.69465 8.39804 5.65 8.35L2.15 4.85C1.95 4.65 1.95 4.34 2.15 4.14L5.65 0.65C5.85 0.45 6.16 0.45 6.36 0.65C6.56 0.85 6.56 1.16 6.36 1.36L3.21 4.51L6.36 7.66C6.56 7.86 6.56 8.17 6.36 8.37C6.26 8.47 6.13 8.52 6.01 8.52L6 8.5Z" fill="black"/>
</svg>
