<svg width="179" height="35" viewBox="0 0 179 35" fill="none" xmlns="http://www.w3.org/2000/svg">
<path d="M1.575 25V14.5H5.67C6.59 14.5 7.375 14.645 8.025 14.935C8.675 15.225 9.175 15.645 9.525 16.195C9.875 16.745 10.05 17.4 10.05 18.16C10.05 18.92 9.875 19.575 9.525 20.125C9.175 20.665 8.675 21.085 8.025 21.385C7.375 21.675 6.59 21.82 5.67 21.82H2.4L3.075 21.115V25H1.575ZM3.075 21.265L2.4 20.515H5.625C6.585 20.515 7.31 20.31 7.8 19.9C8.3 19.49 8.55 18.91 8.55 18.16C8.55 17.41 8.3 16.83 7.8 16.42C7.31 16.01 6.585 15.805 5.625 15.805H2.4L3.075 15.055V21.265ZM15.4194 25.09C14.6194 25.09 13.9094 24.915 13.2894 24.565C12.6694 24.215 12.1794 23.735 11.8194 23.125C11.4594 22.505 11.2794 21.805 11.2794 21.025C11.2794 20.235 11.4594 19.535 11.8194 18.925C12.1794 18.315 12.6694 17.84 13.2894 17.5C13.9094 17.15 14.6194 16.975 15.4194 16.975C16.2094 16.975 16.9144 17.15 17.5344 17.5C18.1644 17.84 18.6544 18.315 19.0044 18.925C19.3644 19.525 19.5444 20.225 19.5444 21.025C19.5444 21.815 19.3644 22.515 19.0044 23.125C18.6544 23.735 18.1644 24.215 17.5344 24.565C16.9144 24.915 16.2094 25.09 15.4194 25.09ZM15.4194 23.83C15.9294 23.83 16.3844 23.715 16.7844 23.485C17.1944 23.255 17.5144 22.93 17.7444 22.51C17.9744 22.08 18.0894 21.585 18.0894 21.025C18.0894 20.455 17.9744 19.965 17.7444 19.555C17.5144 19.135 17.1944 18.81 16.7844 18.58C16.3844 18.35 15.9294 18.235 15.4194 18.235C14.9094 18.235 14.4544 18.35 14.0544 18.58C13.6544 18.81 13.3344 19.135 13.0944 19.555C12.8544 19.965 12.7344 20.455 12.7344 21.025C12.7344 21.585 12.8544 22.08 13.0944 22.51C13.3344 22.93 13.6544 23.255 14.0544 23.485C14.4544 23.715 14.9094 23.83 15.4194 23.83ZM22.9962 25L20.0412 17.05H21.4062L24.0312 24.25H23.3862L26.1162 17.05H27.3312L30.0012 24.25H29.3712L32.0562 17.05H33.3462L30.3762 25H28.9962L26.4912 18.43H26.9112L24.3762 25H22.9962ZM38.1277 25.09C37.2777 25.09 36.5277 24.915 35.8777 24.565C35.2377 24.215 34.7377 23.735 34.3777 23.125C34.0277 22.515 33.8527 21.815 33.8527 21.025C33.8527 20.235 34.0227 19.535 34.3627 18.925C34.7127 18.315 35.1877 17.84 35.7877 17.5C36.3977 17.15 37.0827 16.975 37.8427 16.975C38.6127 16.975 39.2927 17.145 39.8827 17.485C40.4727 17.825 40.9327 18.305 41.2627 18.925C41.6027 19.535 41.7727 20.25 41.7727 21.07C41.7727 21.13 41.7677 21.2 41.7577 21.28C41.7577 21.36 41.7527 21.435 41.7427 21.505H34.9777V20.47H40.9927L40.4077 20.83C40.4177 20.32 40.3127 19.865 40.0927 19.465C39.8727 19.065 39.5677 18.755 39.1777 18.535C38.7977 18.305 38.3527 18.19 37.8427 18.19C37.3427 18.19 36.8977 18.305 36.5077 18.535C36.1177 18.755 35.8127 19.07 35.5927 19.48C35.3727 19.88 35.2627 20.34 35.2627 20.86V21.1C35.2627 21.63 35.3827 22.105 35.6227 22.525C35.8727 22.935 36.2177 23.255 36.6577 23.485C37.0977 23.715 37.6027 23.83 38.1727 23.83C38.6427 23.83 39.0677 23.75 39.4477 23.59C39.8377 23.43 40.1777 23.19 40.4677 22.87L41.2627 23.8C40.9027 24.22 40.4527 24.54 39.9127 24.76C39.3827 24.98 38.7877 25.09 38.1277 25.09ZM43.7722 25V17.05H45.1522V19.21L45.0172 18.67C45.2372 18.12 45.6072 17.7 46.1272 17.41C46.6472 17.12 47.2872 16.975 48.0472 16.975V18.37C47.9872 18.36 47.9272 18.355 47.8672 18.355C47.8172 18.355 47.7672 18.355 47.7172 18.355C46.9472 18.355 46.3372 18.585 45.8872 19.045C45.4372 19.505 45.2122 20.17 45.2122 21.04V25H43.7722ZM53.2888 25.09C52.4388 25.09 51.6888 24.915 51.0388 24.565C50.3988 24.215 49.8988 23.735 49.5388 23.125C49.1888 22.515 49.0138 21.815 49.0138 21.025C49.0138 20.235 49.1838 19.535 49.5238 18.925C49.8738 18.315 50.3488 17.84 50.9488 17.5C51.5588 17.15 52.2438 16.975 53.0038 16.975C53.7738 16.975 54.4538 17.145 55.0438 17.485C55.6338 17.825 56.0938 18.305 56.4238 18.925C56.7638 19.535 56.9338 20.25 56.9338 21.07C56.9338 21.13 56.9288 21.2 56.9188 21.28C56.9188 21.36 56.9138 21.435 56.9038 21.505H50.1388V20.47H56.1538L55.5688 20.83C55.5788 20.32 55.4738 19.865 55.2538 19.465C55.0338 19.065 54.7288 18.755 54.3388 18.535C53.9588 18.305 53.5138 18.19 53.0038 18.19C52.5038 18.19 52.0588 18.305 51.6688 18.535C51.2788 18.755 50.9738 19.07 50.7538 19.48C50.5338 19.88 50.4238 20.34 50.4238 20.86V21.1C50.4238 21.63 50.5438 22.105 50.7838 22.525C51.0338 22.935 51.3788 23.255 51.8188 23.485C52.2588 23.715 52.7638 23.83 53.3338 23.83C53.8038 23.83 54.2288 23.75 54.6088 23.59C54.9988 23.43 55.3388 23.19 55.6288 22.87L56.4238 23.8C56.0638 24.22 55.6138 24.54 55.0738 24.76C54.5438 24.98 53.9488 25.09 53.2888 25.09ZM62.2184 25.09C61.4484 25.09 60.7584 24.92 60.1484 24.58C59.5484 24.24 59.0734 23.765 58.7234 23.155C58.3734 22.545 58.1984 21.835 58.1984 21.025C58.1984 20.215 58.3734 19.51 58.7234 18.91C59.0734 18.3 59.5484 17.825 60.1484 17.485C60.7584 17.145 61.4484 16.975 62.2184 16.975C62.8884 16.975 63.4934 17.125 64.0334 17.425C64.5734 17.725 65.0034 18.175 65.3234 18.775C65.6534 19.375 65.8184 20.125 65.8184 21.025C65.8184 21.925 65.6584 22.675 65.3384 23.275C65.0284 23.875 64.6034 24.33 64.0634 24.64C63.5234 24.94 62.9084 25.09 62.2184 25.09ZM62.3384 23.83C62.8384 23.83 63.2884 23.715 63.6884 23.485C64.0984 23.255 64.4184 22.93 64.6484 22.51C64.8884 22.08 65.0084 21.585 65.0084 21.025C65.0084 20.455 64.8884 19.965 64.6484 19.555C64.4184 19.135 64.0984 18.81 63.6884 18.58C63.2884 18.35 62.8384 18.235 62.3384 18.235C61.8284 18.235 61.3734 18.35 60.9734 18.58C60.5734 18.81 60.2534 19.135 60.0134 19.555C59.7734 19.965 59.6534 20.455 59.6534 21.025C59.6534 21.585 59.7734 22.08 60.0134 22.51C60.2534 22.93 60.5734 23.255 60.9734 23.485C61.3734 23.715 61.8284 23.83 62.3384 23.83ZM65.0534 25V22.855L65.1434 21.01L64.9934 19.165V13.87H66.4334V25H65.0534ZM77.4013 25.09C76.7213 25.09 76.1063 24.94 75.5563 24.64C75.0163 24.33 74.5863 23.875 74.2663 23.275C73.9563 22.675 73.8013 21.925 73.8013 21.025C73.8013 20.125 73.9613 19.375 74.2813 18.775C74.6113 18.175 75.0463 17.725 75.5863 17.425C76.1363 17.125 76.7413 16.975 77.4013 16.975C78.1813 16.975 78.8713 17.145 79.4713 17.485C80.0713 17.825 80.5463 18.3 80.8963 18.91C81.2463 19.51 81.4213 20.215 81.4213 21.025C81.4213 21.835 81.2463 22.545 80.8963 23.155C80.5463 23.765 80.0713 24.24 79.4713 24.58C78.8713 24.92 78.1813 25.09 77.4013 25.09ZM73.1863 25V13.87H74.6263V19.165L74.4763 21.01L74.5663 22.855V25H73.1863ZM77.2813 23.83C77.7913 23.83 78.2463 23.715 78.6463 23.485C79.0563 23.255 79.3763 22.93 79.6063 22.51C79.8463 22.08 79.9663 21.585 79.9663 21.025C79.9663 20.455 79.8463 19.965 79.6063 19.555C79.3763 19.135 79.0563 18.81 78.6463 18.58C78.2463 18.35 77.7913 18.235 77.2813 18.235C76.7813 18.235 76.3263 18.35 75.9163 18.58C75.5163 18.81 75.1963 19.135 74.9563 19.555C74.7263 19.965 74.6113 20.455 74.6113 21.025C74.6113 21.585 74.7263 22.08 74.9563 22.51C75.1963 22.93 75.5163 23.255 75.9163 23.485C76.3263 23.715 76.7813 23.83 77.2813 23.83ZM83.5362 28C83.1562 28 82.7862 27.935 82.4262 27.805C82.0662 27.685 81.7562 27.505 81.4962 27.265L82.1112 26.185C82.3112 26.375 82.5312 26.52 82.7712 26.62C83.0112 26.72 83.2662 26.77 83.5362 26.77C83.8862 26.77 84.1762 26.68 84.4062 26.5C84.6362 26.32 84.8512 26 85.0512 25.54L85.5462 24.445L85.6962 24.265L88.8162 17.05H90.2262L86.3712 25.795C86.1412 26.355 85.8812 26.795 85.5912 27.115C85.3112 27.435 85.0012 27.66 84.6612 27.79C84.3212 27.93 83.9462 28 83.5362 28ZM85.4262 25.255L81.7962 17.05H83.2962L86.3862 24.13L85.4262 25.255Z" fill="#545454"/>
<path d="M95.8084 25V14.5H100.518C101.728 14.5 102.658 14.745 103.308 15.235C103.958 15.715 104.283 16.375 104.283 17.215C104.283 17.785 104.153 18.265 103.893 18.655C103.643 19.045 103.303 19.345 102.873 19.555C102.443 19.765 101.978 19.87 101.478 19.87L101.748 19.42C102.348 19.42 102.878 19.525 103.338 19.735C103.798 19.945 104.163 20.255 104.433 20.665C104.703 21.065 104.838 21.565 104.838 22.165C104.838 23.065 104.498 23.765 103.818 24.265C103.148 24.755 102.148 25 100.818 25H95.8084ZM97.3084 23.785H100.758C101.588 23.785 102.223 23.645 102.663 23.365C103.103 23.085 103.323 22.645 103.323 22.045C103.323 21.435 103.103 20.99 102.663 20.71C102.223 20.43 101.588 20.29 100.758 20.29H97.1734V19.075H100.383C101.143 19.075 101.733 18.935 102.153 18.655C102.573 18.375 102.783 17.955 102.783 17.395C102.783 16.835 102.573 16.415 102.153 16.135C101.733 15.855 101.143 15.715 100.383 15.715H97.3084V23.785ZM106.951 25V17.05H108.331V19.21L108.196 18.67C108.416 18.12 108.786 17.7 109.306 17.41C109.826 17.12 110.466 16.975 111.226 16.975V18.37C111.166 18.36 111.106 18.355 111.046 18.355C110.996 18.355 110.946 18.355 110.896 18.355C110.126 18.355 109.516 18.585 109.066 19.045C108.616 19.505 108.391 20.17 108.391 21.04V25H106.951ZM117.35 25V23.32L117.275 23.005V20.14C117.275 19.53 117.095 19.06 116.735 18.73C116.385 18.39 115.855 18.22 115.145 18.22C114.675 18.22 114.215 18.3 113.765 18.46C113.315 18.61 112.935 18.815 112.625 19.075L112.025 17.995C112.435 17.665 112.925 17.415 113.495 17.245C114.075 17.065 114.68 16.975 115.31 16.975C116.4 16.975 117.24 17.24 117.83 17.77C118.42 18.3 118.715 19.11 118.715 20.2V25H117.35ZM114.74 25.09C114.15 25.09 113.63 24.99 113.18 24.79C112.74 24.59 112.4 24.315 112.16 23.965C111.92 23.605 111.8 23.2 111.8 22.75C111.8 22.32 111.9 21.93 112.1 21.58C112.31 21.23 112.645 20.95 113.105 20.74C113.575 20.53 114.205 20.425 114.995 20.425H117.515V21.46H115.055C114.335 21.46 113.85 21.58 113.6 21.82C113.35 22.06 113.225 22.35 113.225 22.69C113.225 23.08 113.38 23.395 113.69 23.635C114 23.865 114.43 23.98 114.98 23.98C115.52 23.98 115.99 23.86 116.39 23.62C116.8 23.38 117.095 23.03 117.275 22.57L117.56 23.56C117.37 24.03 117.035 24.405 116.555 24.685C116.075 24.955 115.47 25.09 114.74 25.09ZM123.318 25L119.838 17.05H121.338L124.428 24.25H123.708L126.858 17.05H128.268L124.788 25H123.318ZM132.797 25.09C131.997 25.09 131.287 24.915 130.667 24.565C130.047 24.215 129.557 23.735 129.197 23.125C128.837 22.505 128.657 21.805 128.657 21.025C128.657 20.235 128.837 19.535 129.197 18.925C129.557 18.315 130.047 17.84 130.667 17.5C131.287 17.15 131.997 16.975 132.797 16.975C133.587 16.975 134.292 17.15 134.912 17.5C135.542 17.84 136.032 18.315 136.382 18.925C136.742 19.525 136.922 20.225 136.922 21.025C136.922 21.815 136.742 22.515 136.382 23.125C136.032 23.735 135.542 24.215 134.912 24.565C134.292 24.915 133.587 25.09 132.797 25.09ZM132.797 23.83C133.307 23.83 133.762 23.715 134.162 23.485C134.572 23.255 134.892 22.93 135.122 22.51C135.352 22.08 135.467 21.585 135.467 21.025C135.467 20.455 135.352 19.965 135.122 19.555C134.892 19.135 134.572 18.81 134.162 18.58C133.762 18.35 133.307 18.235 132.797 18.235C132.287 18.235 131.832 18.35 131.432 18.58C131.032 18.81 130.712 19.135 130.472 19.555C130.232 19.965 130.112 20.455 130.112 21.025C130.112 21.585 130.232 22.08 130.472 22.51C130.712 22.93 131.032 23.255 131.432 23.485C131.832 23.715 132.287 23.83 132.797 23.83Z" fill="#FF1A1A"/>
<mask id="mask0_21_153" style="mask-type:luminance" maskUnits="userSpaceOnUse" x="144" y="0" width="35" height="35">
<path d="M179 0H144V35H179V0Z" fill="white"/>
</mask>
<g mask="url(#mask0_21_153)">
<path d="M166.969 1.09375V5.46869C166.969 6.07033 166.476 6.5625 165.875 6.5625C165.273 6.5625 164.781 6.07033 164.781 5.46869V1.09375C164.781 0.492184 165.273 0 165.875 0C166.476 0 166.969 0.492184 166.969 1.09375ZM160.221 1.5791L162.409 4.8604C162.744 5.36624 162.607 6.04299 162.108 6.37792C161.609 6.71285 160.926 6.57617 160.591 6.0771L158.403 2.7959C158.068 2.29004 158.205 1.61328 158.704 1.27832C159.203 0.943365 159.887 1.08008 160.221 1.5791ZM153.228 8.13482C153.871 7.49217 154.91 7.49217 155.546 8.13482L164.009 16.5908C164.699 17.2812 165.875 16.789 165.875 15.8183V13.125C165.875 11.9151 166.852 10.9375 168.062 10.9375C169.272 10.9375 170.25 11.9151 170.25 13.125V23.625C170.25 27.5283 168.199 31.1445 164.856 33.1543C160.481 35.7793 154.889 35.0889 151.287 31.4863L144.478 24.6777C143.836 24.0352 143.836 22.9962 144.478 22.3604C145.121 21.7247 146.16 21.7178 146.796 22.3604L150.419 25.9834C150.836 26.4003 151.512 26.4003 151.929 25.9834C152.346 25.5664 152.346 24.8896 151.929 24.4727L145.572 18.1152C144.929 17.4727 144.929 16.4337 145.572 15.7979C146.215 15.1622 147.254 15.1553 147.889 15.7979L154.247 22.1553C154.664 22.5723 155.341 22.5723 155.758 22.1553C156.175 21.7383 156.175 21.0616 155.758 20.6445L147.76 12.6465C147.117 12.0039 147.117 10.9648 147.76 10.3291C148.402 9.69334 149.441 9.68657 150.077 10.3291L158.075 18.3271C158.492 18.7442 159.169 18.7442 159.586 18.3271C160.003 17.9102 160.003 17.2334 159.586 16.8164L153.228 10.459C152.586 9.81635 152.586 8.77734 153.228 8.14159V8.13482ZM173.606 33.1474C171.952 34.1387 170.127 34.6582 168.295 34.7265C171.583 32.0195 174.625 28.2209 174.625 23.8869V15.8252V13.1319C174.625 11.9218 175.602 10.9444 176.812 10.9444C178.022 10.9444 179 11.9218 179 13.1319V23.6318C179 27.5352 176.949 31.1514 173.606 33.1611V33.1474ZM173.046 1.27832C173.551 1.61328 173.681 2.29004 173.346 2.7959L171.159 6.0771C170.824 6.58307 170.147 6.71285 169.641 6.37792C169.135 6.04299 169.006 5.36624 169.341 4.8604L171.528 1.5791C171.863 1.07325 172.54 0.943365 173.046 1.27832Z" fill="#FF1A1A"/>
</g>
</svg>
