<svg width="25" height="25" viewBox="0 0 25 25" fill="none" xmlns="http://www.w3.org/2000/svg">
<path d="M12.4998 20.8334C10.1734 20.8334 8.20296 20.0261 6.58838 18.4115C4.9738 16.797 4.1665 14.8265 4.1665 12.5001C4.1665 10.1737 4.9738 8.20321 6.58838 6.58862C8.20296 4.97404 10.1734 4.16675 12.4998 4.16675C13.6978 4.16675 14.8436 4.41397 15.9373 4.90841C17.0311 5.40286 17.9686 6.1105 18.7498 7.03133V4.16675H20.8332V11.4584H13.5415V9.37508H17.9165C17.3609 8.40286 16.6016 7.63897 15.6384 7.08341C14.6752 6.52786 13.629 6.25008 12.4998 6.25008C10.7637 6.25008 9.28803 6.85772 8.07275 8.073C6.85748 9.28828 6.24984 10.764 6.24984 12.5001C6.24984 14.2362 6.85748 15.7119 8.07275 16.9272C9.28803 18.1424 10.7637 18.7501 12.4998 18.7501C13.8366 18.7501 15.0432 18.3681 16.1196 17.6042C17.196 16.8404 17.9512 15.8334 18.3853 14.5834H20.5728C20.0866 16.4237 19.0971 17.9254 17.604 19.0886C16.1109 20.2518 14.4096 20.8334 12.4998 20.8334Z" fill="#857E7E"/>
</svg>
