<svg width="48" height="59" viewBox="0 0 48 59" fill="none" xmlns="http://www.w3.org/2000/svg">
<path d="M27.46 51.7083C27.1084 52.3767 26.6037 52.9316 25.9965 53.3173C25.3892 53.703 24.7008 53.906 24 53.906C23.2992 53.906 22.6108 53.703 22.0035 53.3173C21.3963 52.9316 20.8916 52.3767 20.54 51.7083M36 23.9183C36 20.1755 34.736 16.5848 32.486 13.9382C30.236 11.2915 27.18 9.80273 24 9.80273C20.82 9.80273 17.766 11.2893 15.514 13.9382C13.264 16.5848 12 20.1755 12 23.9183C12 40.3872 6 45.0916 6 45.0916H42C42 45.0916 36 40.3872 36 23.9183Z" stroke="#777777" stroke-width="2.5" stroke-linecap="round" stroke-linejoin="round"/>
<circle cx="35" cy="11" r="11" fill="#FF1A1A"/>
<path d="M34.64 15.1C34.1467 15.1 33.6633 15.03 33.19 14.89C32.7233 14.7433 32.33 14.5433 32.01 14.29L32.57 13.28C32.8233 13.4867 33.13 13.6533 33.49 13.78C33.85 13.9067 34.2267 13.97 34.62 13.97C35.0867 13.97 35.45 13.8767 35.71 13.69C35.97 13.4967 36.1 13.2367 36.1 12.91C36.1 12.59 35.98 12.3367 35.74 12.15C35.5 11.9633 35.1133 11.87 34.58 11.87H33.94V10.98L35.94 8.6L36.11 9.09H32.35V8H37.12V8.87L35.12 11.25L34.44 10.85H34.83C35.69 10.85 36.3333 11.0433 36.76 11.43C37.1933 11.81 37.41 12.3 37.41 12.9C37.41 13.2933 37.31 13.6567 37.11 13.99C36.91 14.3233 36.6033 14.5933 36.19 14.8C35.7833 15 35.2667 15.1 34.64 15.1Z" fill="white"/>
</svg>
