<svg width="38" height="38" viewBox="0 0 38 38" fill="none" xmlns="http://www.w3.org/2000/svg">
<path fill-rule="evenodd" clip-rule="evenodd" d="M12.4181 6.02016C15.6307 4.11858 17.2362 3.16699 19 3.16699C20.7638 3.16699 22.3693 4.11699 25.5819 6.02016L26.6681 6.66299C29.8807 8.56616 31.4862 9.51774 32.3681 11.0837C33.25 12.6512 33.25 14.5512 33.25 18.3575V19.6432C33.25 23.4479 33.25 25.3511 32.3681 26.917C31.4862 28.4829 29.8807 29.4345 26.6681 31.3361L25.5819 31.9805C22.3693 33.8821 20.7638 34.8337 19 34.8337C17.2362 34.8337 15.6307 33.8837 12.4181 31.9805L11.3319 31.3361C8.11933 29.4361 6.51383 28.4829 5.63192 26.917C4.75 25.3495 4.75 23.4495 4.75 19.6432V18.3575C4.75 14.5512 4.75 12.6496 5.63192 11.0837C6.51383 9.51774 8.11933 8.56616 11.3319 6.66299L12.4181 6.02016ZM20.5833 25.3337C20.5833 25.7536 20.4165 26.1563 20.1196 26.4532C19.8227 26.7502 19.4199 26.917 19 26.917C18.5801 26.917 18.1773 26.7502 17.8804 26.4532C17.5835 26.1563 17.4167 25.7536 17.4167 25.3337C17.4167 24.9137 17.5835 24.511 17.8804 24.2141C18.1773 23.9171 18.5801 23.7503 19 23.7503C19.4199 23.7503 19.8227 23.9171 20.1196 24.2141C20.4165 24.511 20.5833 24.9137 20.5833 25.3337ZM19 9.89616C19.3149 9.89616 19.617 10.0213 19.8397 10.244C20.0624 10.4667 20.1875 10.7687 20.1875 11.0837V20.5837C20.1875 20.8986 20.0624 21.2006 19.8397 21.4233C19.617 21.646 19.3149 21.7712 19 21.7712C18.6851 21.7712 18.383 21.646 18.1603 21.4233C17.9376 21.2006 17.8125 20.8986 17.8125 20.5837V11.0837C17.8125 10.7687 17.9376 10.4667 18.1603 10.244C18.383 10.0213 18.6851 9.89616 19 9.89616Z" fill="#F8F8F8"/>
</svg>
