<svg width="39" height="39" viewBox="0 0 39 39" fill="none" xmlns="http://www.w3.org/2000/svg">
<path d="M29.4994 8.03481L23.747 0.0986328L2.59543 16.726L1.42286 16.7135V16.7313H0.5V38.0986H38.5V16.7313H36.7592L33.2958 6.76168L29.4994 8.03481ZM32.9357 16.7313H14.7898L28.3051 12.1979L31.0592 11.3307L32.9357 16.7313ZM25.9238 9.23494L11.9724 13.9144L23.0213 5.22857L25.9238 9.23494ZM4.11905 31.2771V23.5493C4.88298 23.284 5.57689 22.8538 6.14989 22.2902C6.72288 21.7267 7.16044 21.0441 7.43048 20.2925H31.5695C31.8393 21.0444 32.2768 21.7274 32.8498 22.2912C33.4228 22.8551 34.1168 23.2856 34.881 23.551V31.2789C34.1168 31.5444 33.4228 31.9749 32.8498 32.5387C32.2768 33.1026 31.8393 33.7855 31.5695 34.5374H7.4341C7.163 33.7854 6.7247 33.1025 6.15118 32.5384C5.57766 31.9744 4.88339 31.5435 4.11905 31.2771Z" fill="#F8F8F8"/>
</svg>
