<svg width="38" height="38" viewBox="0 0 38 38" fill="none" xmlns="http://www.w3.org/2000/svg">
<path d="M32.2917 25.75C33.1315 25.75 33.937 25.4164 34.5308 24.8225C35.1247 24.2286 35.4583 23.4232 35.4583 22.5833V5.16667C35.4583 4.32681 35.1247 3.52136 34.5308 2.9275C33.937 2.33363 33.1315 2 32.2917 2H15.6033C16.1575 2.96583 16.4583 4.05833 16.4583 5.16667H32.2917V22.5833H18.0417V25.75M24.375 9.91667V13.0833H14.875V33.6667H11.7083V24.1667H8.54167V33.6667H5.375V21H3V13.0833C3 12.2435 3.33363 11.438 3.9275 10.8442C4.52136 10.2503 5.32681 9.91667 6.16667 9.91667H24.375ZM13.2917 5.16667C13.2917 6.00652 12.958 6.81197 12.3642 7.40584C11.7703 7.9997 10.9649 8.33333 10.125 8.33333C9.28515 8.33333 8.47969 7.9997 7.88583 7.40584C7.29196 6.81197 6.95833 6.00652 6.95833 5.16667C6.95833 4.32681 7.29196 3.52136 7.88583 2.9275C8.47969 2.33363 9.28515 2 10.125 2C10.9649 2 11.7703 2.33363 12.3642 2.9275C12.958 3.52136 13.2917 4.32681 13.2917 5.16667Z" fill="#F8F8F8"/>
</svg>
