<svg width="38" height="38" viewBox="0 0 38 38" fill="none" xmlns="http://www.w3.org/2000/svg">
<path d="M18.9997 18.9997C17.258 18.9997 15.767 18.3795 14.5268 17.1393C13.2865 15.899 12.6663 14.408 12.6663 12.6663C12.6663 10.9247 13.2865 9.4337 14.5268 8.19342C15.767 6.95315 17.258 6.33301 18.9997 6.33301C20.7413 6.33301 22.2323 6.95315 23.4726 8.19342C24.7129 9.4337 25.333 10.9247 25.333 12.6663C25.333 14.408 24.7129 15.899 23.4726 17.1393C22.2323 18.3795 20.7413 18.9997 18.9997 18.9997ZM6.33301 31.6663V27.233C6.33301 26.3358 6.56417 25.5114 7.02651 24.7598C7.48884 24.0083 8.10212 23.4341 8.86634 23.0372C10.5025 22.2191 12.165 21.6058 13.8538 21.1973C15.5427 20.7888 17.258 20.5841 18.9997 20.583C20.7413 20.582 22.4566 20.7867 24.1455 21.1973C25.8344 21.608 27.4969 22.2212 29.133 23.0372C29.8983 23.433 30.5121 24.0072 30.9744 24.7598C31.4368 25.5125 31.6674 26.3368 31.6663 27.233V31.6663H6.33301Z" fill="#F8F8F8"/>
</svg>
