<svg width="38" height="38" viewBox="0 0 38 38" fill="none" xmlns="http://www.w3.org/2000/svg">
<path d="M6.96647 3.7998C6.12662 3.7998 5.32116 4.13343 4.7273 4.7273C4.13343 5.32116 3.7998 6.12662 3.7998 6.96647V13.2998C4.63966 13.2998 5.44511 13.6334 6.03898 14.2273C6.63284 14.8212 6.96647 15.6266 6.96647 16.4665C6.96647 17.3063 6.63284 18.1118 6.03898 18.7056C5.44511 19.2995 4.63966 19.6331 3.7998 19.6331V25.9665C3.7998 26.8063 4.13343 27.6118 4.7273 28.2056C5.32116 28.7995 6.12662 29.1331 6.96647 29.1331H32.2998C33.1397 29.1331 33.9451 28.7995 34.539 28.2056C35.1328 27.6118 35.4665 26.8063 35.4665 25.9665V19.6331C34.6266 19.6331 33.8212 19.2995 33.2273 18.7056C32.6334 18.1118 32.2998 17.3063 32.2998 16.4665C32.2998 15.6266 32.6334 14.8212 33.2273 14.2273C33.8212 13.6334 34.6266 13.2998 35.4665 13.2998V6.96647C35.4665 6.12662 35.1328 5.32116 34.539 4.7273C33.9451 4.13343 33.1397 3.7998 32.2998 3.7998H6.96647ZM25.1748 8.5498L27.5498 10.9248L14.0915 24.3831L11.7165 22.0081L25.1748 8.5498ZM14.5823 8.61314C16.134 8.61314 17.3848 9.86397 17.3848 11.4156C17.3848 12.1589 17.0895 12.8717 16.564 13.3973C16.0384 13.9229 15.3256 14.2181 14.5823 14.2181C13.0306 14.2181 11.7798 12.9673 11.7798 11.4156C11.7798 10.6724 12.0751 9.95954 12.6006 9.43397C13.1262 8.9084 13.839 8.61314 14.5823 8.61314ZM24.684 18.7148C26.2356 18.7148 27.4865 19.9656 27.4865 21.5173C27.4865 22.2606 27.1912 22.9734 26.6656 23.499C26.1401 24.0245 25.4272 24.3198 24.684 24.3198C23.1323 24.3198 21.8815 23.069 21.8815 21.5173C21.8815 20.774 22.1767 20.0612 22.7023 19.5356C23.2279 19.0101 23.9407 18.7148 24.684 18.7148Z" fill="#F8F8F8"/>
</svg>
