<svg width="38" height="38" viewBox="0 0 38 38" fill="none" xmlns="http://www.w3.org/2000/svg">
<path d="M15.6728 33.3665L11.754 26.0832L4.4707 22.1645L7.28112 19.3936L13.0207 20.3832L17.0582 16.3457L4.51029 11.002L7.83529 7.59779L23.0749 10.2895L27.9832 5.38112C28.5901 4.77418 29.3422 4.4707 30.2395 4.4707C31.1367 4.4707 31.8888 4.77418 32.4957 5.38112C33.1026 5.98806 33.4061 6.73329 33.4061 7.61679C33.4061 8.50029 33.1026 9.24604 32.4957 9.85404L27.5478 14.802L30.2395 30.002L26.8749 33.3665L21.4915 20.8186L17.454 24.8561L18.4832 30.5561L15.6728 33.3665Z" fill="#F8F8F8"/>
</svg>
