<svg version="1.1" id="Layer_1" xmlns="http://www.w3.org/2000/svg" xmlns:xlink="http://www.w3.org/1999/xlink" x="0px" y="0px"
	 width="100%" viewBox="0 0 1024 1024" enable-background="new 0 0 1024 1024" xml:space="preserve">
<path fill="#C9D3DB" opacity="1.000000" stroke="none" 
	d="
M176.000000,1025.000000 
	C117.673828,1025.000000 59.347660,1025.000000 1.016116,1025.000000 
	C1.010744,683.715759 1.010744,342.431488 1.010744,1.073610 
	C342.242340,1.073610 683.484680,1.073610 1024.863525,1.073610 
	C1024.863525,342.333282 1024.863525,683.666626 1024.863525,1025.000000 
	C966.905701,1025.000000 908.912537,1025.000000 850.440674,1024.581543 
	C848.545654,1015.147766 847.503052,1006.054871 845.654358,997.128967 
	C829.922424,921.173950 794.777954,855.878845 737.655151,803.030273 
	C682.033691,751.570679 616.416748,721.983154 540.819275,715.028748 
	C514.535034,712.610779 488.324615,713.737305 462.267731,717.818665 
	C394.929688,728.366089 336.550140,757.504883 286.865204,803.835449 
	C233.313019,853.772217 198.881577,914.979858 182.289200,986.172852 
	C179.320221,998.911926 178.052979,1012.047485 176.000000,1025.000000 
M619.173889,269.321930 
	C599.081665,255.315414 577.037170,246.323090 552.899597,241.693176 
	C522.812683,235.922073 492.945068,236.372314 463.366302,243.600555 
	C412.169220,256.111694 375.692719,287.454712 351.224731,333.527649 
	C331.399323,370.858673 324.075775,411.523712 320.188721,452.936371 
	C318.732697,468.448669 319.176117,484.152252 319.031219,499.771210 
	C318.860596,518.160767 321.555054,536.247681 326.065460,554.022278 
	C335.618927,591.670715 356.254822,620.750122 391.982086,637.860779 
	C418.245300,650.438965 446.520508,655.312805 475.102051,656.656433 
	C502.151611,657.928101 529.357788,656.931702 556.452148,655.853333 
	C578.632751,654.970581 600.409729,650.785095 621.338379,642.988220 
	C654.580811,630.603882 678.605408,608.566895 692.291626,575.536377 
	C703.175476,549.269043 706.301758,521.561035 706.520142,493.608612 
	C706.664978,475.081787 704.287842,456.535248 703.039673,437.997528 
	C701.363586,413.102814 696.127380,388.917908 687.925232,365.413330 
	C674.502441,326.948761 653.427917,293.832794 619.173889,269.321930 
z"/>
<path fill="#647784" opacity="1.000000" stroke="none" 
	d="
M176.468658,1025.000000 
	C178.052979,1012.047485 179.320221,998.911926 182.289200,986.172852 
	C198.881577,914.979858 233.313019,853.772217 286.865204,803.835449 
	C336.550140,757.504883 394.929688,728.366089 462.267731,717.818665 
	C488.324615,713.737305 514.535034,712.610779 540.819275,715.028748 
	C616.416748,721.983154 682.033691,751.570679 737.655151,803.030273 
	C794.777954,855.878845 829.922424,921.173950 845.654358,997.128967 
	C847.503052,1006.054871 848.545654,1015.147766 849.980957,1024.581543 
	C625.645752,1025.000000 401.291534,1025.000000 176.468658,1025.000000 
z"/>
<path fill="#647784" opacity="1.000000" stroke="none" 
	d="
M619.464905,269.534424 
	C653.427917,293.832794 674.502441,326.948761 687.925232,365.413330 
	C696.127380,388.917908 701.363586,413.102814 703.039673,437.997528 
	C704.287842,456.535248 706.664978,475.081787 706.520142,493.608612 
	C706.301758,521.561035 703.175476,549.269043 692.291626,575.536377 
	C678.605408,608.566895 654.580811,630.603882 621.338379,642.988220 
	C600.409729,650.785095 578.632751,654.970581 556.452148,655.853333 
	C529.357788,656.931702 502.151611,657.928101 475.102051,656.656433 
	C446.520508,655.312805 418.245300,650.438965 391.982086,637.860779 
	C356.254822,620.750122 335.618927,591.670715 326.065460,554.022278 
	C321.555054,536.247681 318.860596,518.160767 319.031219,499.771210 
	C319.176117,484.152252 318.732697,468.448669 320.188721,452.936371 
	C324.075775,411.523712 331.399323,370.858673 351.224731,333.527649 
	C375.692719,287.454712 412.169220,256.111694 463.366302,243.600555 
	C492.945068,236.372314 522.812683,235.922073 552.899597,241.693176 
	C577.037170,246.323090 599.081665,255.315414 619.464905,269.534424 
z"/>
</svg>