<svg width="50" height="50" viewBox="0 0 50 50" fill="none" xmlns="http://www.w3.org/2000/svg">
<path d="M25 3.125C30.8016 3.125 36.3656 5.42968 40.468 9.53204C44.5703 13.6344 46.875 19.1984 46.875 25C46.875 30.8016 44.5703 36.3656 40.468 40.468C36.3656 44.5703 30.8016 46.875 25 46.875C19.1984 46.875 13.6344 44.5703 9.53204 40.468C5.42968 36.3656 3.125 30.8016 3.125 25C3.125 19.1984 5.42968 13.6344 9.53204 9.53204C13.6344 5.42968 19.1984 3.125 25 3.125ZM22.275 29.3156L17.4156 24.4531C17.2414 24.2789 17.0346 24.1407 16.807 24.0464C16.5794 23.9522 16.3354 23.9036 16.0891 23.9036C15.8427 23.9036 15.5987 23.9522 15.3711 24.0464C15.1435 24.1407 14.9367 24.2789 14.7625 24.4531C14.4107 24.805 14.213 25.2821 14.213 25.7797C14.213 26.2772 14.4107 26.7544 14.7625 27.1062L20.95 33.2938C21.1237 33.4688 21.3304 33.6078 21.558 33.7026C21.7857 33.7975 22.0299 33.8463 22.2766 33.8463C22.5232 33.8463 22.7674 33.7975 22.9951 33.7026C23.2228 33.6078 23.4294 33.4688 23.6031 33.2938L36.4156 20.4781C36.5922 20.3046 36.7326 20.0979 36.8288 19.8699C36.9251 19.6419 36.9752 19.397 36.9764 19.1495C36.9775 18.902 36.9297 18.6567 36.8355 18.4278C36.7414 18.1989 36.6029 17.9909 36.428 17.8158C36.2531 17.6406 36.0452 17.5019 35.8164 17.4075C35.5876 17.3131 35.3424 17.265 35.0949 17.2658C34.8474 17.2667 34.6025 17.3165 34.3743 17.4125C34.1462 17.5085 33.9393 17.6487 33.7656 17.825L22.275 29.3156Z" fill="white"/>
</svg>
