<svg width="15" height="15" viewBox="0 0 15 15" fill="none" xmlns="http://www.w3.org/2000/svg">
<path d="M2.30453 7.04541C2.24486 6.98902 2.17467 6.94494 2.09796 6.91568C2.02126 6.88642 1.93954 6.87256 1.85748 6.87488C1.77541 6.8772 1.69461 6.89566 1.61968 6.92921C1.54475 6.96276 1.47717 7.01074 1.42078 7.07041C1.36439 7.13008 1.32031 7.20027 1.29105 7.27698C1.26179 7.35368 1.24793 7.4354 1.25025 7.51746C1.25257 7.59953 1.27103 7.68033 1.30458 7.75526C1.33813 7.83019 1.38611 7.89777 1.44578 7.95416L7.07078 13.2667C7.18682 13.3764 7.34046 13.4375 7.50016 13.4375C7.65985 13.4375 7.81349 13.3764 7.92953 13.2667L13.5552 7.95416C13.6161 7.89815 13.6654 7.83057 13.7 7.75537C13.7347 7.68017 13.754 7.59883 13.7569 7.51608C13.7599 7.43334 13.7464 7.35083 13.7171 7.27336C13.6879 7.19588 13.6436 7.12499 13.5868 7.06479C13.5299 7.00459 13.4617 6.95628 13.386 6.92268C13.3103 6.88907 13.2287 6.87084 13.1459 6.86904C13.0632 6.86724 12.9809 6.8819 12.9038 6.91218C12.8267 6.94245 12.7564 6.98774 12.697 7.04541L7.50016 11.9529L2.30453 7.04541Z" fill="#303030"/>
</svg>
