<svg width="58" height="47" viewBox="0 0 58 47" fill="none" xmlns="http://www.w3.org/2000/svg">
<g clip-path="url(#clip0_412_978)">
<path d="M48.4844 3.71454C47.6325 2.86266 47.6325 1.48516 48.4844 0.642348C49.3363 -0.200464 50.7138 -0.209527 51.5566 0.642348L57.3566 6.44235C57.7644 6.85016 57.9909 7.40297 57.9909 7.98297C57.9909 8.56297 57.7644 9.11579 57.3566 9.5236L51.5566 15.3236C50.7047 16.1755 49.3272 16.1755 48.4844 15.3236C47.6416 14.4717 47.6325 13.0942 48.4844 12.2514L50.5688 10.167L34.8 10.1489C33.5947 10.1489 32.625 9.17922 32.625 7.97391C32.625 6.7686 33.5947 5.79891 34.8 5.79891H50.5778L48.4844 3.71454ZM9.51563 34.1645L7.43125 36.2489H23.2C24.4053 36.2489 25.375 37.2186 25.375 38.4239C25.375 39.6292 24.4053 40.5989 23.2 40.5989H7.42219L9.50656 42.6833C10.3584 43.5352 10.3584 44.9127 9.50656 45.7555C8.65469 46.5983 7.27719 46.6073 6.43438 45.7555L0.634375 39.9645C0.226563 39.5567 0 39.0039 0 38.4239C0 37.8439 0.226563 37.2911 0.634375 36.8833L6.43438 31.0833C7.28625 30.2314 8.66375 30.2314 9.50656 31.0833C10.3494 31.9352 10.3584 33.3127 9.50656 34.1555L9.51563 34.1645ZM8.7 5.79891H30.6222C30.2869 6.45141 30.0875 7.18547 30.0875 7.97391C30.0875 10.5748 32.1991 12.6864 34.8 12.6864H45.4394C45.0769 14.227 45.4938 15.9036 46.69 17.1089C48.5297 18.9486 51.5113 18.9486 53.3509 17.1089L55.1 15.3598V34.7989C55.1 37.998 52.4991 40.5989 49.3 40.5989H27.3778C27.7131 39.9464 27.9125 39.2123 27.9125 38.4239C27.9125 35.823 25.8009 33.7114 23.2 33.7114H12.5606C12.9231 32.1708 12.5063 30.4942 11.31 29.2889C9.47031 27.4492 6.48875 27.4492 4.64906 29.2889L2.9 31.038V11.5989C2.9 8.39985 5.50094 5.79891 8.7 5.79891ZM14.5 11.5989H8.7V17.3989C11.8991 17.3989 14.5 14.798 14.5 11.5989ZM49.3 28.9989C46.1009 28.9989 43.5 31.5998 43.5 34.7989H49.3V28.9989ZM29 31.8989C31.3074 31.8989 33.5203 30.9823 35.1518 29.3507C36.7834 27.7192 37.7 25.5063 37.7 23.1989C37.7 20.8915 36.7834 18.6786 35.1518 17.0471C33.5203 15.4155 31.3074 14.4989 29 14.4989C26.6926 14.4989 24.4797 15.4155 22.8482 17.0471C21.2166 18.6786 20.3 20.8915 20.3 23.1989C20.3 25.5063 21.2166 27.7192 22.8482 29.3507C24.4797 30.9823 26.6926 31.8989 29 31.8989Z" fill="#FF0000"/>
</g>
<defs>
<clipPath id="clip0_412_978">
<rect width="58" height="46.4" fill="white" transform="translate(0 -0.000976562)"/>
</clipPath>
</defs>
</svg>
